<svg width="120" height="236" viewBox="0 0 120 236" fill="none" xmlns="http://www.w3.org/2000/svg">
<ellipse cx="2.06897" cy="233.93" rx="2.07018" ry="2.06897" transform="rotate(-90 2.06897 233.93)" fill="#C8CB4D"/>
<ellipse cx="2.06897" cy="210.744" rx="2.07018" ry="2.06897" transform="rotate(-90 2.06897 210.744)" fill="#C8CB4D"/>
<ellipse cx="2.06897" cy="187.558" rx="2.07018" ry="2.06897" transform="rotate(-90 2.06897 187.558)" fill="#C8CB4D"/>
<ellipse cx="2.06897" cy="164.372" rx="2.07018" ry="2.06897" transform="rotate(-90 2.06897 164.372)" fill="#C8CB4D"/>
<ellipse cx="2.06897" cy="141.186" rx="2.07018" ry="2.06897" transform="rotate(-90 2.06897 141.186)" fill="#C8CB4D"/>
<ellipse cx="2.06897" cy="118" rx="2.07018" ry="2.06897" transform="rotate(-90 2.06897 118)" fill="#C8CB4D"/>
<ellipse cx="2.06897" cy="94.814" rx="2.07018" ry="2.06897" transform="rotate(-90 2.06897 94.814)" fill="#C8CB4D"/>
<ellipse cx="2.06897" cy="71.6281" rx="2.07018" ry="2.06897" transform="rotate(-90 2.06897 71.6281)" fill="#C8CB4D"/>
<ellipse cx="2.06897" cy="48.4421" rx="2.07018" ry="2.06897" transform="rotate(-90 2.06897 48.4421)" fill="#C8CB4D"/>
<ellipse cx="2.06897" cy="25.2561" rx="2.07018" ry="2.06897" transform="rotate(-90 2.06897 25.2561)" fill="#C8CB4D"/>
<ellipse cx="2.06897" cy="2.07017" rx="2.07018" ry="2.06897" transform="rotate(-90 2.06897 2.07017)" fill="#C8CB4D"/>
<ellipse cx="13.6552" cy="222.337" rx="2.07018" ry="2.06897" transform="rotate(-90 13.6552 222.337)" fill="#C8CB4D"/>
<ellipse cx="13.6552" cy="199.151" rx="2.07018" ry="2.06897" transform="rotate(-90 13.6552 199.151)" fill="#C8CB4D"/>
<ellipse cx="13.6552" cy="175.965" rx="2.07018" ry="2.06897" transform="rotate(-90 13.6552 175.965)" fill="#C8CB4D"/>
<ellipse cx="13.6552" cy="152.779" rx="2.07018" ry="2.06897" transform="rotate(-90 13.6552 152.779)" fill="#C8CB4D"/>
<ellipse cx="13.6552" cy="129.593" rx="2.07018" ry="2.06897" transform="rotate(-90 13.6552 129.593)" fill="#C8CB4D"/>
<ellipse cx="13.6552" cy="106.407" rx="2.07018" ry="2.06897" transform="rotate(-90 13.6552 106.407)" fill="#C8CB4D"/>
<ellipse cx="13.6552" cy="83.2211" rx="2.07018" ry="2.06897" transform="rotate(-90 13.6552 83.2211)" fill="#C8CB4D"/>
<ellipse cx="13.6552" cy="60.0351" rx="2.07018" ry="2.06897" transform="rotate(-90 13.6552 60.0351)" fill="#C8CB4D"/>
<ellipse cx="13.6552" cy="36.8491" rx="2.07018" ry="2.06897" transform="rotate(-90 13.6552 36.8491)" fill="#C8CB4D"/>
<ellipse cx="13.6552" cy="13.6632" rx="2.07018" ry="2.06897" transform="rotate(-90 13.6552 13.6632)" fill="#C8CB4D"/>
<ellipse cx="25.2414" cy="210.744" rx="2.07018" ry="2.06897" transform="rotate(-90 25.2414 210.744)" fill="#C8CB4D"/>
<ellipse cx="25.2414" cy="187.558" rx="2.07018" ry="2.06897" transform="rotate(-90 25.2414 187.558)" fill="#C8CB4D"/>
<ellipse cx="25.2414" cy="164.372" rx="2.07018" ry="2.06897" transform="rotate(-90 25.2414 164.372)" fill="#C8CB4D"/>
<ellipse cx="25.2414" cy="141.186" rx="2.07018" ry="2.06897" transform="rotate(-90 25.2414 141.186)" fill="#C8CB4D"/>
<ellipse cx="25.2414" cy="118" rx="2.07018" ry="2.06897" transform="rotate(-90 25.2414 118)" fill="#C8CB4D"/>
<ellipse cx="25.2414" cy="94.814" rx="2.07018" ry="2.06897" transform="rotate(-90 25.2414 94.814)" fill="#C8CB4D"/>
<ellipse cx="25.2414" cy="71.6281" rx="2.07018" ry="2.06897" transform="rotate(-90 25.2414 71.6281)" fill="#C8CB4D"/>
<ellipse cx="25.2414" cy="48.4421" rx="2.07018" ry="2.06897" transform="rotate(-90 25.2414 48.4421)" fill="#C8CB4D"/>
<ellipse cx="25.2414" cy="25.2561" rx="2.07018" ry="2.06897" transform="rotate(-90 25.2414 25.2561)" fill="#C8CB4D"/>
<ellipse cx="36.8276" cy="199.151" rx="2.07018" ry="2.06897" transform="rotate(-90 36.8276 199.151)" fill="#C8CB4D"/>
<ellipse cx="36.8276" cy="175.965" rx="2.07018" ry="2.06897" transform="rotate(-90 36.8276 175.965)" fill="#C8CB4D"/>
<ellipse cx="36.8276" cy="152.779" rx="2.07018" ry="2.06897" transform="rotate(-90 36.8276 152.779)" fill="#C8CB4D"/>
<ellipse cx="36.8276" cy="129.593" rx="2.07018" ry="2.06897" transform="rotate(-90 36.8276 129.593)" fill="#C8CB4D"/>
<ellipse cx="36.8276" cy="106.407" rx="2.07018" ry="2.06897" transform="rotate(-90 36.8276 106.407)" fill="#C8CB4D"/>
<ellipse cx="36.8276" cy="83.2211" rx="2.07018" ry="2.06897" transform="rotate(-90 36.8276 83.2211)" fill="#C8CB4D"/>
<ellipse cx="36.8276" cy="60.0351" rx="2.07018" ry="2.06897" transform="rotate(-90 36.8276 60.0351)" fill="#C8CB4D"/>
<ellipse cx="36.8276" cy="36.8491" rx="2.07018" ry="2.06897" transform="rotate(-90 36.8276 36.8491)" fill="#C8CB4D"/>
<ellipse cx="48.4138" cy="187.558" rx="2.07018" ry="2.06897" transform="rotate(-90 48.4138 187.558)" fill="#C8CB4D"/>
<ellipse cx="48.4138" cy="164.372" rx="2.07018" ry="2.06897" transform="rotate(-90 48.4138 164.372)" fill="#C8CB4D"/>
<ellipse cx="48.4138" cy="141.186" rx="2.07018" ry="2.06897" transform="rotate(-90 48.4138 141.186)" fill="#C8CB4D"/>
<ellipse cx="48.4138" cy="118" rx="2.07018" ry="2.06897" transform="rotate(-90 48.4138 118)" fill="#C8CB4D"/>
<ellipse cx="48.4138" cy="94.814" rx="2.07018" ry="2.06897" transform="rotate(-90 48.4138 94.814)" fill="#C8CB4D"/>
<ellipse cx="48.4138" cy="71.6281" rx="2.07018" ry="2.06897" transform="rotate(-90 48.4138 71.6281)" fill="#C8CB4D"/>
<ellipse cx="48.4138" cy="48.4421" rx="2.07018" ry="2.06897" transform="rotate(-90 48.4138 48.4421)" fill="#C8CB4D"/>
<ellipse cx="60" cy="175.965" rx="2.07018" ry="2.06897" transform="rotate(-90 60 175.965)" fill="#C8CB4D"/>
<ellipse cx="60" cy="152.779" rx="2.07018" ry="2.06897" transform="rotate(-90 60 152.779)" fill="#C8CB4D"/>
<ellipse cx="60" cy="129.593" rx="2.07018" ry="2.06897" transform="rotate(-90 60 129.593)" fill="#C8CB4D"/>
<ellipse cx="60" cy="106.407" rx="2.07018" ry="2.06897" transform="rotate(-90 60 106.407)" fill="#C8CB4D"/>
<ellipse cx="60" cy="83.2211" rx="2.07018" ry="2.06897" transform="rotate(-90 60 83.2211)" fill="#C8CB4D"/>
<ellipse cx="60" cy="60.0351" rx="2.07018" ry="2.06897" transform="rotate(-90 60 60.0351)" fill="#C8CB4D"/>
<ellipse cx="71.5862" cy="164.372" rx="2.07018" ry="2.06897" transform="rotate(-90 71.5862 164.372)" fill="#C8CB4D"/>
<ellipse cx="71.5862" cy="141.186" rx="2.07018" ry="2.06897" transform="rotate(-90 71.5862 141.186)" fill="#C8CB4D"/>
<ellipse cx="71.5862" cy="118" rx="2.07018" ry="2.06897" transform="rotate(-90 71.5862 118)" fill="#C8CB4D"/>
<ellipse cx="71.5862" cy="94.814" rx="2.07018" ry="2.06897" transform="rotate(-90 71.5862 94.814)" fill="#C8CB4D"/>
<ellipse cx="71.5862" cy="71.6281" rx="2.07018" ry="2.06897" transform="rotate(-90 71.5862 71.6281)" fill="#C8CB4D"/>
<ellipse cx="83.1724" cy="152.779" rx="2.07018" ry="2.06897" transform="rotate(-90 83.1724 152.779)" fill="#C8CB4D"/>
<ellipse cx="83.1724" cy="129.593" rx="2.07018" ry="2.06897" transform="rotate(-90 83.1724 129.593)" fill="#C8CB4D"/>
<ellipse cx="83.1724" cy="106.407" rx="2.07018" ry="2.06897" transform="rotate(-90 83.1724 106.407)" fill="#C8CB4D"/>
<ellipse cx="83.1724" cy="83.2211" rx="2.07018" ry="2.06897" transform="rotate(-90 83.1724 83.2211)" fill="#C8CB4D"/>
<ellipse cx="94.7586" cy="141.186" rx="2.07018" ry="2.06897" transform="rotate(-90 94.7586 141.186)" fill="#C8CB4D"/>
<ellipse cx="94.7586" cy="118" rx="2.07018" ry="2.06897" transform="rotate(-90 94.7586 118)" fill="#C8CB4D"/>
<ellipse cx="94.7586" cy="94.814" rx="2.07018" ry="2.06897" transform="rotate(-90 94.7586 94.814)" fill="#C8CB4D"/>
<ellipse cx="106.345" cy="129.593" rx="2.07018" ry="2.06897" transform="rotate(-90 106.345 129.593)" fill="#C8CB4D"/>
<ellipse cx="106.345" cy="106.407" rx="2.07018" ry="2.06897" transform="rotate(-90 106.345 106.407)" fill="#C8CB4D"/>
<ellipse cx="117.931" cy="118" rx="2.07018" ry="2.06897" transform="rotate(-90 117.931 118)" fill="#C8CB4D"/>
</svg>
