<svg width="113" height="223" viewBox="0 0 113 223" fill="none" xmlns="http://www.w3.org/2000/svg">
<g style="mix-blend-mode:multiply">
<ellipse cx="111.052" cy="1.95614" rx="1.95614" ry="1.94828" transform="rotate(90 111.052 1.95614)" fill="#C4C4C4"/>
<ellipse cx="111.052" cy="23.8649" rx="1.95614" ry="1.94828" transform="rotate(90 111.052 23.8649)" fill="#C4C4C4"/>
<ellipse cx="111.052" cy="45.7737" rx="1.95614" ry="1.94828" transform="rotate(90 111.052 45.7737)" fill="#C4C4C4"/>
<ellipse cx="111.052" cy="67.6825" rx="1.95614" ry="1.94828" transform="rotate(90 111.052 67.6825)" fill="#C4C4C4"/>
<ellipse cx="111.052" cy="89.5913" rx="1.95614" ry="1.94828" transform="rotate(90 111.052 89.5913)" fill="#C4C4C4"/>
<ellipse cx="111.052" cy="111.5" rx="1.95614" ry="1.94828" transform="rotate(90 111.052 111.5)" fill="#C4C4C4"/>
<ellipse cx="111.052" cy="133.409" rx="1.95614" ry="1.94828" transform="rotate(90 111.052 133.409)" fill="#C4C4C4"/>
<ellipse cx="111.052" cy="155.318" rx="1.95614" ry="1.94828" transform="rotate(90 111.052 155.318)" fill="#C4C4C4"/>
<ellipse cx="111.052" cy="177.226" rx="1.95614" ry="1.94828" transform="rotate(90 111.052 177.226)" fill="#C4C4C4"/>
<ellipse cx="111.052" cy="199.135" rx="1.95614" ry="1.94828" transform="rotate(90 111.052 199.135)" fill="#C4C4C4"/>
<ellipse cx="111.052" cy="221.044" rx="1.95614" ry="1.94828" transform="rotate(90 111.052 221.044)" fill="#C4C4C4"/>
<ellipse cx="100.141" cy="12.9105" rx="1.95614" ry="1.94828" transform="rotate(90 100.141 12.9105)" fill="#C4C4C4"/>
<ellipse cx="100.141" cy="34.8193" rx="1.95614" ry="1.94828" transform="rotate(90 100.141 34.8193)" fill="#C4C4C4"/>
<ellipse cx="100.141" cy="56.7281" rx="1.95614" ry="1.94828" transform="rotate(90 100.141 56.7281)" fill="#C4C4C4"/>
<ellipse cx="100.141" cy="78.6369" rx="1.95614" ry="1.94828" transform="rotate(90 100.141 78.6369)" fill="#C4C4C4"/>
<ellipse cx="100.141" cy="100.546" rx="1.95614" ry="1.94828" transform="rotate(90 100.141 100.546)" fill="#C4C4C4"/>
<ellipse cx="100.141" cy="122.454" rx="1.95614" ry="1.94828" transform="rotate(90 100.141 122.454)" fill="#C4C4C4"/>
<ellipse cx="100.141" cy="144.363" rx="1.95614" ry="1.94828" transform="rotate(90 100.141 144.363)" fill="#C4C4C4"/>
<ellipse cx="100.141" cy="166.272" rx="1.95614" ry="1.94828" transform="rotate(90 100.141 166.272)" fill="#C4C4C4"/>
<ellipse cx="100.141" cy="188.181" rx="1.95614" ry="1.94828" transform="rotate(90 100.141 188.181)" fill="#C4C4C4"/>
<ellipse cx="100.141" cy="210.089" rx="1.95614" ry="1.94828" transform="rotate(90 100.141 210.089)" fill="#C4C4C4"/>
<ellipse cx="89.231" cy="23.8649" rx="1.95614" ry="1.94828" transform="rotate(90 89.231 23.8649)" fill="#C4C4C4"/>
<ellipse cx="89.231" cy="45.7737" rx="1.95614" ry="1.94828" transform="rotate(90 89.231 45.7737)" fill="#C4C4C4"/>
<ellipse cx="89.231" cy="67.6824" rx="1.95614" ry="1.94828" transform="rotate(90 89.231 67.6824)" fill="#C4C4C4"/>
<ellipse cx="89.231" cy="89.5912" rx="1.95614" ry="1.94828" transform="rotate(90 89.231 89.5912)" fill="#C4C4C4"/>
<ellipse cx="89.231" cy="111.5" rx="1.95614" ry="1.94828" transform="rotate(90 89.231 111.5)" fill="#C4C4C4"/>
<ellipse cx="89.231" cy="133.409" rx="1.95614" ry="1.94828" transform="rotate(90 89.231 133.409)" fill="#C4C4C4"/>
<ellipse cx="89.231" cy="155.318" rx="1.95614" ry="1.94828" transform="rotate(90 89.231 155.318)" fill="#C4C4C4"/>
<ellipse cx="89.231" cy="177.226" rx="1.95614" ry="1.94828" transform="rotate(90 89.231 177.226)" fill="#C4C4C4"/>
<ellipse cx="89.231" cy="199.135" rx="1.95614" ry="1.94828" transform="rotate(90 89.231 199.135)" fill="#C4C4C4"/>
<ellipse cx="78.3207" cy="34.8193" rx="1.95614" ry="1.94828" transform="rotate(90 78.3207 34.8193)" fill="#C4C4C4"/>
<ellipse cx="78.3207" cy="56.7281" rx="1.95614" ry="1.94828" transform="rotate(90 78.3207 56.7281)" fill="#C4C4C4"/>
<ellipse cx="78.3207" cy="78.6369" rx="1.95614" ry="1.94828" transform="rotate(90 78.3207 78.6369)" fill="#C4C4C4"/>
<ellipse cx="78.3207" cy="100.546" rx="1.95614" ry="1.94828" transform="rotate(90 78.3207 100.546)" fill="#C4C4C4"/>
<ellipse cx="78.3207" cy="122.454" rx="1.95614" ry="1.94828" transform="rotate(90 78.3207 122.454)" fill="#C4C4C4"/>
<ellipse cx="78.3207" cy="144.363" rx="1.95614" ry="1.94828" transform="rotate(90 78.3207 144.363)" fill="#C4C4C4"/>
<ellipse cx="78.3207" cy="166.272" rx="1.95614" ry="1.94828" transform="rotate(90 78.3207 166.272)" fill="#C4C4C4"/>
<ellipse cx="78.3207" cy="188.181" rx="1.95614" ry="1.94828" transform="rotate(90 78.3207 188.181)" fill="#C4C4C4"/>
<ellipse cx="67.4103" cy="45.7737" rx="1.95614" ry="1.94828" transform="rotate(90 67.4103 45.7737)" fill="#C4C4C4"/>
<ellipse cx="67.4103" cy="67.6824" rx="1.95614" ry="1.94828" transform="rotate(90 67.4103 67.6824)" fill="#C4C4C4"/>
<ellipse cx="67.4103" cy="89.5912" rx="1.95614" ry="1.94828" transform="rotate(90 67.4103 89.5912)" fill="#C4C4C4"/>
<ellipse cx="67.4103" cy="111.5" rx="1.95614" ry="1.94828" transform="rotate(90 67.4103 111.5)" fill="#C4C4C4"/>
<ellipse cx="67.4103" cy="133.409" rx="1.95614" ry="1.94828" transform="rotate(90 67.4103 133.409)" fill="#C4C4C4"/>
<ellipse cx="67.4103" cy="155.318" rx="1.95614" ry="1.94828" transform="rotate(90 67.4103 155.318)" fill="#C4C4C4"/>
<ellipse cx="67.4103" cy="177.226" rx="1.95614" ry="1.94828" transform="rotate(90 67.4103 177.226)" fill="#C4C4C4"/>
<ellipse cx="56.5" cy="56.7281" rx="1.95614" ry="1.94828" transform="rotate(90 56.5 56.7281)" fill="#C4C4C4"/>
<ellipse cx="56.5" cy="78.6369" rx="1.95614" ry="1.94828" transform="rotate(90 56.5 78.6369)" fill="#C4C4C4"/>
<ellipse cx="56.5" cy="100.546" rx="1.95614" ry="1.94828" transform="rotate(90 56.5 100.546)" fill="#C4C4C4"/>
<ellipse cx="56.5" cy="122.454" rx="1.95614" ry="1.94828" transform="rotate(90 56.5 122.454)" fill="#C4C4C4"/>
<ellipse cx="56.5" cy="144.363" rx="1.95614" ry="1.94828" transform="rotate(90 56.5 144.363)" fill="#C4C4C4"/>
<ellipse cx="56.5" cy="166.272" rx="1.95614" ry="1.94828" transform="rotate(90 56.5 166.272)" fill="#C4C4C4"/>
<ellipse cx="45.5897" cy="67.6824" rx="1.95614" ry="1.94828" transform="rotate(90 45.5897 67.6824)" fill="#C4C4C4"/>
<ellipse cx="45.5897" cy="89.5912" rx="1.95614" ry="1.94828" transform="rotate(90 45.5897 89.5912)" fill="#C4C4C4"/>
<ellipse cx="45.5897" cy="111.5" rx="1.95614" ry="1.94828" transform="rotate(90 45.5897 111.5)" fill="#C4C4C4"/>
<ellipse cx="45.5897" cy="133.409" rx="1.95614" ry="1.94828" transform="rotate(90 45.5897 133.409)" fill="#C4C4C4"/>
<ellipse cx="45.5897" cy="155.318" rx="1.95614" ry="1.94828" transform="rotate(90 45.5897 155.318)" fill="#C4C4C4"/>
<ellipse cx="34.6793" cy="78.6369" rx="1.95614" ry="1.94828" transform="rotate(90 34.6793 78.6369)" fill="#C4C4C4"/>
<ellipse cx="34.6793" cy="100.546" rx="1.95614" ry="1.94828" transform="rotate(90 34.6793 100.546)" fill="#C4C4C4"/>
<ellipse cx="34.6793" cy="122.454" rx="1.95614" ry="1.94828" transform="rotate(90 34.6793 122.454)" fill="#C4C4C4"/>
<ellipse cx="34.6793" cy="144.363" rx="1.95614" ry="1.94828" transform="rotate(90 34.6793 144.363)" fill="#C4C4C4"/>
<ellipse cx="23.7689" cy="89.5912" rx="1.95614" ry="1.94828" transform="rotate(90 23.7689 89.5912)" fill="#C4C4C4"/>
<ellipse cx="23.7689" cy="111.5" rx="1.95614" ry="1.94828" transform="rotate(90 23.7689 111.5)" fill="#C4C4C4"/>
<ellipse cx="23.7689" cy="133.409" rx="1.95614" ry="1.94828" transform="rotate(90 23.7689 133.409)" fill="#C4C4C4"/>
<ellipse cx="12.8586" cy="100.546" rx="1.95614" ry="1.94828" transform="rotate(90 12.8586 100.546)" fill="#C4C4C4"/>
<ellipse cx="12.8586" cy="122.454" rx="1.95614" ry="1.94828" transform="rotate(90 12.8586 122.454)" fill="#C4C4C4"/>
<ellipse cx="1.94833" cy="111.5" rx="1.95614" ry="1.94828" transform="rotate(90 1.94833 111.5)" fill="#C4C4C4"/>
</g>
</svg>
