<svg width="120" height="236" viewBox="0 0 120 236" fill="none" xmlns="http://www.w3.org/2000/svg">
<ellipse cx="117.931" cy="2.07018" rx="2.07018" ry="2.06897" transform="rotate(90 117.931 2.07018)" fill="white" fill-opacity="0.73"/>
<ellipse cx="117.931" cy="25.2561" rx="2.07018" ry="2.06897" transform="rotate(90 117.931 25.2561)" fill="white" fill-opacity="0.73"/>
<ellipse cx="117.931" cy="48.4421" rx="2.07018" ry="2.06897" transform="rotate(90 117.931 48.4421)" fill="white" fill-opacity="0.73"/>
<ellipse cx="117.931" cy="71.6281" rx="2.07018" ry="2.06897" transform="rotate(90 117.931 71.6281)" fill="white" fill-opacity="0.73"/>
<ellipse cx="117.931" cy="94.814" rx="2.07018" ry="2.06897" transform="rotate(90 117.931 94.814)" fill="white" fill-opacity="0.73"/>
<ellipse cx="117.931" cy="118" rx="2.07018" ry="2.06897" transform="rotate(90 117.931 118)" fill="white" fill-opacity="0.73"/>
<ellipse cx="117.931" cy="141.186" rx="2.07018" ry="2.06897" transform="rotate(90 117.931 141.186)" fill="white" fill-opacity="0.73"/>
<ellipse cx="117.931" cy="164.372" rx="2.07018" ry="2.06897" transform="rotate(90 117.931 164.372)" fill="white" fill-opacity="0.73"/>
<ellipse cx="117.931" cy="187.558" rx="2.07018" ry="2.06897" transform="rotate(90 117.931 187.558)" fill="white" fill-opacity="0.73"/>
<ellipse cx="117.931" cy="210.744" rx="2.07018" ry="2.06897" transform="rotate(90 117.931 210.744)" fill="white" fill-opacity="0.73"/>
<ellipse cx="117.931" cy="233.93" rx="2.07018" ry="2.06897" transform="rotate(90 117.931 233.93)" fill="white" fill-opacity="0.73"/>
<ellipse cx="106.345" cy="13.6632" rx="2.07018" ry="2.06897" transform="rotate(90 106.345 13.6632)" fill="white" fill-opacity="0.73"/>
<ellipse cx="106.345" cy="36.8491" rx="2.07018" ry="2.06897" transform="rotate(90 106.345 36.8491)" fill="white" fill-opacity="0.73"/>
<ellipse cx="106.345" cy="60.0351" rx="2.07018" ry="2.06897" transform="rotate(90 106.345 60.0351)" fill="white" fill-opacity="0.73"/>
<ellipse cx="106.345" cy="83.2211" rx="2.07018" ry="2.06897" transform="rotate(90 106.345 83.2211)" fill="white" fill-opacity="0.73"/>
<ellipse cx="106.345" cy="106.407" rx="2.07018" ry="2.06897" transform="rotate(90 106.345 106.407)" fill="white" fill-opacity="0.73"/>
<ellipse cx="106.345" cy="129.593" rx="2.07018" ry="2.06897" transform="rotate(90 106.345 129.593)" fill="white" fill-opacity="0.73"/>
<ellipse cx="106.345" cy="152.779" rx="2.07018" ry="2.06897" transform="rotate(90 106.345 152.779)" fill="white" fill-opacity="0.73"/>
<ellipse cx="106.345" cy="175.965" rx="2.07018" ry="2.06897" transform="rotate(90 106.345 175.965)" fill="white" fill-opacity="0.73"/>
<ellipse cx="106.345" cy="199.151" rx="2.07018" ry="2.06897" transform="rotate(90 106.345 199.151)" fill="white" fill-opacity="0.73"/>
<ellipse cx="106.345" cy="222.337" rx="2.07018" ry="2.06897" transform="rotate(90 106.345 222.337)" fill="white" fill-opacity="0.73"/>
<ellipse cx="94.7587" cy="25.2561" rx="2.07018" ry="2.06897" transform="rotate(90 94.7587 25.2561)" fill="white" fill-opacity="0.73"/>
<ellipse cx="94.7587" cy="48.4421" rx="2.07018" ry="2.06897" transform="rotate(90 94.7587 48.4421)" fill="white" fill-opacity="0.73"/>
<ellipse cx="94.7587" cy="71.6281" rx="2.07018" ry="2.06897" transform="rotate(90 94.7587 71.6281)" fill="white" fill-opacity="0.73"/>
<ellipse cx="94.7587" cy="94.814" rx="2.07018" ry="2.06897" transform="rotate(90 94.7587 94.814)" fill="white" fill-opacity="0.73"/>
<ellipse cx="94.7587" cy="118" rx="2.07018" ry="2.06897" transform="rotate(90 94.7587 118)" fill="white" fill-opacity="0.73"/>
<ellipse cx="94.7587" cy="141.186" rx="2.07018" ry="2.06897" transform="rotate(90 94.7587 141.186)" fill="white" fill-opacity="0.73"/>
<ellipse cx="94.7587" cy="164.372" rx="2.07018" ry="2.06897" transform="rotate(90 94.7587 164.372)" fill="white" fill-opacity="0.73"/>
<ellipse cx="94.7587" cy="187.558" rx="2.07018" ry="2.06897" transform="rotate(90 94.7587 187.558)" fill="white" fill-opacity="0.73"/>
<ellipse cx="94.7587" cy="210.744" rx="2.07018" ry="2.06897" transform="rotate(90 94.7587 210.744)" fill="white" fill-opacity="0.73"/>
<ellipse cx="83.1724" cy="36.8491" rx="2.07018" ry="2.06897" transform="rotate(90 83.1724 36.8491)" fill="white" fill-opacity="0.73"/>
<ellipse cx="83.1724" cy="60.0351" rx="2.07018" ry="2.06897" transform="rotate(90 83.1724 60.0351)" fill="white" fill-opacity="0.73"/>
<ellipse cx="83.1724" cy="83.2211" rx="2.07018" ry="2.06897" transform="rotate(90 83.1724 83.2211)" fill="white" fill-opacity="0.73"/>
<ellipse cx="83.1724" cy="106.407" rx="2.07018" ry="2.06897" transform="rotate(90 83.1724 106.407)" fill="white" fill-opacity="0.73"/>
<ellipse cx="83.1724" cy="129.593" rx="2.07018" ry="2.06897" transform="rotate(90 83.1724 129.593)" fill="white" fill-opacity="0.73"/>
<ellipse cx="83.1724" cy="152.779" rx="2.07018" ry="2.06897" transform="rotate(90 83.1724 152.779)" fill="white" fill-opacity="0.73"/>
<ellipse cx="83.1724" cy="175.965" rx="2.07018" ry="2.06897" transform="rotate(90 83.1724 175.965)" fill="white" fill-opacity="0.73"/>
<ellipse cx="83.1724" cy="199.151" rx="2.07018" ry="2.06897" transform="rotate(90 83.1724 199.151)" fill="white" fill-opacity="0.73"/>
<ellipse cx="71.5862" cy="48.4421" rx="2.07018" ry="2.06897" transform="rotate(90 71.5862 48.4421)" fill="white" fill-opacity="0.73"/>
<ellipse cx="71.5862" cy="71.6281" rx="2.07018" ry="2.06897" transform="rotate(90 71.5862 71.6281)" fill="white" fill-opacity="0.73"/>
<ellipse cx="71.5862" cy="94.814" rx="2.07018" ry="2.06897" transform="rotate(90 71.5862 94.814)" fill="white" fill-opacity="0.73"/>
<ellipse cx="71.5862" cy="118" rx="2.07018" ry="2.06897" transform="rotate(90 71.5862 118)" fill="white" fill-opacity="0.73"/>
<ellipse cx="71.5862" cy="141.186" rx="2.07018" ry="2.06897" transform="rotate(90 71.5862 141.186)" fill="white" fill-opacity="0.73"/>
<ellipse cx="71.5862" cy="164.372" rx="2.07018" ry="2.06897" transform="rotate(90 71.5862 164.372)" fill="white" fill-opacity="0.73"/>
<ellipse cx="71.5862" cy="187.558" rx="2.07018" ry="2.06897" transform="rotate(90 71.5862 187.558)" fill="white" fill-opacity="0.73"/>
<ellipse cx="60" cy="60.0351" rx="2.07018" ry="2.06897" transform="rotate(90 60 60.0351)" fill="white" fill-opacity="0.73"/>
<ellipse cx="60" cy="83.2211" rx="2.07018" ry="2.06897" transform="rotate(90 60 83.2211)" fill="white" fill-opacity="0.73"/>
<ellipse cx="60" cy="106.407" rx="2.07018" ry="2.06897" transform="rotate(90 60 106.407)" fill="white" fill-opacity="0.73"/>
<ellipse cx="60" cy="129.593" rx="2.07018" ry="2.06897" transform="rotate(90 60 129.593)" fill="white" fill-opacity="0.73"/>
<ellipse cx="60" cy="152.779" rx="2.07018" ry="2.06897" transform="rotate(90 60 152.779)" fill="white" fill-opacity="0.73"/>
<ellipse cx="60" cy="175.965" rx="2.07018" ry="2.06897" transform="rotate(90 60 175.965)" fill="white" fill-opacity="0.73"/>
<ellipse cx="48.4138" cy="71.6281" rx="2.07018" ry="2.06897" transform="rotate(90 48.4138 71.6281)" fill="white" fill-opacity="0.73"/>
<ellipse cx="48.4138" cy="94.814" rx="2.07018" ry="2.06897" transform="rotate(90 48.4138 94.814)" fill="white" fill-opacity="0.73"/>
<ellipse cx="48.4138" cy="118" rx="2.07018" ry="2.06897" transform="rotate(90 48.4138 118)" fill="white" fill-opacity="0.73"/>
<ellipse cx="48.4138" cy="141.186" rx="2.07018" ry="2.06897" transform="rotate(90 48.4138 141.186)" fill="white" fill-opacity="0.73"/>
<ellipse cx="48.4138" cy="164.372" rx="2.07018" ry="2.06897" transform="rotate(90 48.4138 164.372)" fill="white" fill-opacity="0.73"/>
<ellipse cx="36.8276" cy="83.2211" rx="2.07018" ry="2.06897" transform="rotate(90 36.8276 83.2211)" fill="white" fill-opacity="0.73"/>
<ellipse cx="36.8276" cy="106.407" rx="2.07018" ry="2.06897" transform="rotate(90 36.8276 106.407)" fill="white" fill-opacity="0.73"/>
<ellipse cx="36.8276" cy="129.593" rx="2.07018" ry="2.06897" transform="rotate(90 36.8276 129.593)" fill="white" fill-opacity="0.73"/>
<ellipse cx="36.8276" cy="152.779" rx="2.07018" ry="2.06897" transform="rotate(90 36.8276 152.779)" fill="white" fill-opacity="0.73"/>
<ellipse cx="25.2414" cy="94.814" rx="2.07018" ry="2.06897" transform="rotate(90 25.2414 94.814)" fill="white" fill-opacity="0.73"/>
<ellipse cx="25.2414" cy="118" rx="2.07018" ry="2.06897" transform="rotate(90 25.2414 118)" fill="white" fill-opacity="0.73"/>
<ellipse cx="25.2414" cy="141.186" rx="2.07018" ry="2.06897" transform="rotate(90 25.2414 141.186)" fill="white" fill-opacity="0.73"/>
<ellipse cx="13.6552" cy="106.407" rx="2.07018" ry="2.06897" transform="rotate(90 13.6552 106.407)" fill="white" fill-opacity="0.73"/>
<ellipse cx="13.6552" cy="129.593" rx="2.07018" ry="2.06897" transform="rotate(90 13.6552 129.593)" fill="white" fill-opacity="0.73"/>
<ellipse cx="2.06897" cy="118" rx="2.07018" ry="2.06897" transform="rotate(90 2.06897 118)" fill="white" fill-opacity="0.73"/>
</svg>
