<svg width="109" height="213" viewBox="0 0 109 213" fill="none" xmlns="http://www.w3.org/2000/svg">
<ellipse cx="106.345" cy="2.07018" rx="2.07018" ry="2.06897" transform="rotate(90 106.345 2.07018)" fill="#F2AF4A"/>
<ellipse cx="106.345" cy="25.2561" rx="2.07018" ry="2.06897" transform="rotate(90 106.345 25.2561)" fill="#F2AF4A"/>
<ellipse cx="106.345" cy="48.4421" rx="2.07018" ry="2.06897" transform="rotate(90 106.345 48.4421)" fill="#F2AF4A"/>
<ellipse cx="106.345" cy="71.6281" rx="2.07018" ry="2.06897" transform="rotate(90 106.345 71.6281)" fill="#F2AF4A"/>
<ellipse cx="106.345" cy="94.814" rx="2.07018" ry="2.06897" transform="rotate(90 106.345 94.814)" fill="#F2AF4A"/>
<ellipse cx="106.345" cy="118" rx="2.07018" ry="2.06897" transform="rotate(90 106.345 118)" fill="#F2AF4A"/>
<ellipse cx="106.345" cy="141.186" rx="2.07018" ry="2.06897" transform="rotate(90 106.345 141.186)" fill="#F2AF4A"/>
<ellipse cx="106.345" cy="164.372" rx="2.07018" ry="2.06897" transform="rotate(90 106.345 164.372)" fill="#F2AF4A"/>
<ellipse cx="106.345" cy="187.558" rx="2.07018" ry="2.06897" transform="rotate(90 106.345 187.558)" fill="#F2AF4A"/>
<ellipse cx="106.345" cy="210.744" rx="2.07018" ry="2.06897" transform="rotate(90 106.345 210.744)" fill="#F2AF4A"/>
<ellipse cx="94.7587" cy="13.6632" rx="2.07018" ry="2.06897" transform="rotate(90 94.7587 13.6632)" fill="#F2AF4A"/>
<ellipse cx="94.7587" cy="36.8491" rx="2.07018" ry="2.06897" transform="rotate(90 94.7587 36.8491)" fill="#F2AF4A"/>
<ellipse cx="94.7587" cy="60.0351" rx="2.07018" ry="2.06897" transform="rotate(90 94.7587 60.0351)" fill="#F2AF4A"/>
<ellipse cx="94.7587" cy="83.2211" rx="2.07018" ry="2.06897" transform="rotate(90 94.7587 83.2211)" fill="#F2AF4A"/>
<ellipse cx="94.7586" cy="106.407" rx="2.07018" ry="2.06897" transform="rotate(90 94.7586 106.407)" fill="#F2AF4A"/>
<ellipse cx="94.7586" cy="129.593" rx="2.07018" ry="2.06897" transform="rotate(90 94.7586 129.593)" fill="#F2AF4A"/>
<ellipse cx="94.7586" cy="152.779" rx="2.07018" ry="2.06897" transform="rotate(90 94.7586 152.779)" fill="#F2AF4A"/>
<ellipse cx="94.7586" cy="175.965" rx="2.07018" ry="2.06897" transform="rotate(90 94.7586 175.965)" fill="#F2AF4A"/>
<ellipse cx="94.7586" cy="199.151" rx="2.07018" ry="2.06897" transform="rotate(90 94.7586 199.151)" fill="#F2AF4A"/>
<ellipse cx="83.1724" cy="25.2561" rx="2.07018" ry="2.06897" transform="rotate(90 83.1724 25.2561)" fill="#F2AF4A"/>
<ellipse cx="83.1724" cy="48.4421" rx="2.07018" ry="2.06897" transform="rotate(90 83.1724 48.4421)" fill="#F2AF4A"/>
<ellipse cx="83.1724" cy="71.6281" rx="2.07018" ry="2.06897" transform="rotate(90 83.1724 71.6281)" fill="#F2AF4A"/>
<ellipse cx="83.1724" cy="94.814" rx="2.07018" ry="2.06897" transform="rotate(90 83.1724 94.814)" fill="#F2AF4A"/>
<ellipse cx="83.1724" cy="118" rx="2.07018" ry="2.06897" transform="rotate(90 83.1724 118)" fill="#F2AF4A"/>
<ellipse cx="83.1724" cy="141.186" rx="2.07018" ry="2.06897" transform="rotate(90 83.1724 141.186)" fill="#F2AF4A"/>
<ellipse cx="83.1724" cy="164.372" rx="2.07018" ry="2.06897" transform="rotate(90 83.1724 164.372)" fill="#F2AF4A"/>
<ellipse cx="83.1724" cy="187.558" rx="2.07018" ry="2.06897" transform="rotate(90 83.1724 187.558)" fill="#F2AF4A"/>
<ellipse cx="71.5863" cy="36.8491" rx="2.07018" ry="2.06897" transform="rotate(90 71.5863 36.8491)" fill="#F2AF4A"/>
<ellipse cx="71.5863" cy="60.0351" rx="2.07018" ry="2.06897" transform="rotate(90 71.5863 60.0351)" fill="#F2AF4A"/>
<ellipse cx="71.5863" cy="83.2211" rx="2.07018" ry="2.06897" transform="rotate(90 71.5863 83.2211)" fill="#F2AF4A"/>
<ellipse cx="71.5863" cy="106.407" rx="2.07018" ry="2.06897" transform="rotate(90 71.5863 106.407)" fill="#F2AF4A"/>
<ellipse cx="71.5863" cy="129.593" rx="2.07018" ry="2.06897" transform="rotate(90 71.5863 129.593)" fill="#F2AF4A"/>
<ellipse cx="71.5863" cy="152.779" rx="2.07018" ry="2.06897" transform="rotate(90 71.5863 152.779)" fill="#F2AF4A"/>
<ellipse cx="71.5863" cy="175.965" rx="2.07018" ry="2.06897" transform="rotate(90 71.5863 175.965)" fill="#F2AF4A"/>
<ellipse cx="60" cy="48.4421" rx="2.07018" ry="2.06897" transform="rotate(90 60 48.4421)" fill="#F2AF4A"/>
<ellipse cx="60" cy="71.6281" rx="2.07018" ry="2.06897" transform="rotate(90 60 71.6281)" fill="#F2AF4A"/>
<ellipse cx="60" cy="94.814" rx="2.07018" ry="2.06897" transform="rotate(90 60 94.814)" fill="#F2AF4A"/>
<ellipse cx="60" cy="118" rx="2.07018" ry="2.06897" transform="rotate(90 60 118)" fill="#F2AF4A"/>
<ellipse cx="60" cy="141.186" rx="2.07018" ry="2.06897" transform="rotate(90 60 141.186)" fill="#F2AF4A"/>
<ellipse cx="60" cy="164.372" rx="2.07018" ry="2.06897" transform="rotate(90 60 164.372)" fill="#F2AF4A"/>
<ellipse cx="48.4138" cy="60.0351" rx="2.07018" ry="2.06897" transform="rotate(90 48.4138 60.0351)" fill="#F2AF4A"/>
<ellipse cx="48.4138" cy="83.2211" rx="2.07018" ry="2.06897" transform="rotate(90 48.4138 83.2211)" fill="#F2AF4A"/>
<ellipse cx="48.4138" cy="106.407" rx="2.07018" ry="2.06897" transform="rotate(90 48.4138 106.407)" fill="#F2AF4A"/>
<ellipse cx="48.4138" cy="129.593" rx="2.07018" ry="2.06897" transform="rotate(90 48.4138 129.593)" fill="#F2AF4A"/>
<ellipse cx="48.4138" cy="152.779" rx="2.07018" ry="2.06897" transform="rotate(90 48.4138 152.779)" fill="#F2AF4A"/>
<ellipse cx="36.8276" cy="71.6281" rx="2.07018" ry="2.06897" transform="rotate(90 36.8276 71.6281)" fill="#F2AF4A"/>
<ellipse cx="36.8276" cy="94.814" rx="2.07018" ry="2.06897" transform="rotate(90 36.8276 94.814)" fill="#F2AF4A"/>
<ellipse cx="36.8276" cy="118" rx="2.07018" ry="2.06897" transform="rotate(90 36.8276 118)" fill="#F2AF4A"/>
<ellipse cx="36.8276" cy="141.186" rx="2.07018" ry="2.06897" transform="rotate(90 36.8276 141.186)" fill="#F2AF4A"/>
<ellipse cx="25.2414" cy="83.2211" rx="2.07018" ry="2.06897" transform="rotate(90 25.2414 83.2211)" fill="#F2AF4A"/>
<ellipse cx="25.2414" cy="106.407" rx="2.07018" ry="2.06897" transform="rotate(90 25.2414 106.407)" fill="#F2AF4A"/>
<ellipse cx="25.2414" cy="129.593" rx="2.07018" ry="2.06897" transform="rotate(90 25.2414 129.593)" fill="#F2AF4A"/>
<ellipse cx="13.6552" cy="94.814" rx="2.07018" ry="2.06897" transform="rotate(90 13.6552 94.814)" fill="#F2AF4A"/>
<ellipse cx="13.6552" cy="118" rx="2.07018" ry="2.06897" transform="rotate(90 13.6552 118)" fill="#F2AF4A"/>
<ellipse cx="2.06897" cy="106.407" rx="2.07018" ry="2.06897" transform="rotate(90 2.06897 106.407)" fill="#F2AF4A"/>
</svg>
