<svg xmlns="http://www.w3.org/2000/svg" width="195" height="480" fill="none"><path fill="#fff" fill-opacity=".7" d="M3.36207 103.719C5.21889 103.719 6.72414 102.215 6.72414 100.36 6.72414 98.5042 5.21889 97 3.36207 97 1.50525 97-8.12929e-8 98.5042 0 100.36 8.12929e-8 102.215 1.50525 103.719 3.36207 103.719zM3.36207 141.348C5.21889 141.348 6.72414 139.844 6.72414 137.988 6.72414 136.133 5.21889 134.628 3.36207 134.628 1.50525 134.628-8.12929e-8 136.133 0 137.988 8.12929e-8 139.844 1.50525 141.348 3.36207 141.348zM3.36207 178.975C5.21889 178.975 6.72414 177.471 6.72414 175.616 6.72414 173.76 5.21889 172.256 3.36207 172.256 1.50525 172.256-8.12929e-8 173.76 0 175.616 8.12929e-8 177.471 1.50525 178.975 3.36207 178.975zM3.36207 216.604C5.21889 216.604 6.72414 215.099 6.72414 213.244 6.72414 211.388 5.21889 209.884 3.36207 209.884 1.50525 209.884-8.12929e-8 211.388 0 213.244 8.12929e-8 215.099 1.50525 216.604 3.36207 216.604zM3.36209 254.232C5.21891 254.232 6.72416 252.728 6.72416 250.872 6.72416 249.017 5.21891 247.512 3.36209 247.512 1.50527 247.512.0000228069 249.017.0000228882 250.872.0000229695 252.728 1.50527 254.232 3.36209 254.232zM3.36209 291.86C5.21891 291.86 6.72416 290.356 6.72416 288.5 6.72416 286.645 5.21891 285.14 3.36209 285.14 1.50527 285.14.0000228069 286.645.0000228882 288.5.0000229695 290.356 1.50527 291.86 3.36209 291.86zM3.36209 329.488C5.21891 329.488 6.72416 327.984 6.72416 326.128 6.72416 324.273 5.21891 322.769 3.36209 322.769 1.50527 322.769.0000228069 324.273.0000228882 326.128.0000229695 327.984 1.50527 329.488 3.36209 329.488zM3.36209 367.116C5.21891 367.116 6.72416 365.612 6.72416 363.756 6.72416 361.901 5.21891 360.397 3.36209 360.397 1.50527 360.397.0000228069 361.901.0000228882 363.756.0000229695 365.612 1.50527 367.116 3.36209 367.116zM3.36209 404.744C5.21891 404.744 6.72416 403.24 6.72416 401.384 6.72416 399.529 5.21891 398.025 3.36209 398.025 1.50527 398.025.0000228069 399.529.0000228882 401.384.0000229695 403.24 1.50527 404.744 3.36209 404.744zM3.36209 442.372C5.21891 442.372 6.72416 440.868 6.72416 439.012 6.72416 437.157 5.21891 435.653 3.36209 435.653 1.50527 435.653.0000228069 437.157.0000228882 439.012.0000229695 440.868 1.50527 442.372 3.36209 442.372zM3.36209 480C5.21891 480 6.72416 478.496 6.72416 476.64 6.72416 474.785 5.21891 473.281 3.36209 473.281 1.50527 473.281.0000228069 474.785.0000228882 476.64.0000229695 478.496 1.50527 480 3.36209 480zM22.1897 122.534C24.0465 122.534 25.5517 121.029 25.5517 119.174 25.5517 117.318 24.0465 115.814 22.1897 115.814 20.3328 115.814 18.8276 117.318 18.8276 119.174 18.8276 121.029 20.3328 122.534 22.1897 122.534zM22.1897 160.162C24.0465 160.162 25.5517 158.658 25.5517 156.802 25.5517 154.947 24.0465 153.442 22.1897 153.442 20.3328 153.442 18.8276 154.947 18.8276 156.802 18.8276 158.658 20.3328 160.162 22.1897 160.162zM22.1897 197.789C24.0465 197.789 25.5517 196.285 25.5517 194.43 25.5517 192.574 24.0465 191.07 22.1897 191.07 20.3328 191.07 18.8276 192.574 18.8276 194.43 18.8276 196.285 20.3328 197.789 22.1897 197.789zM22.1897 235.418C24.0465 235.418 25.5517 233.914 25.5517 232.058 25.5517 230.203 24.0465 228.698 22.1897 228.698 20.3328 228.698 18.8276 230.203 18.8276 232.058 18.8276 233.914 20.3328 235.418 22.1897 235.418zM22.1897 273.046C24.0465 273.046 25.5517 271.542 25.5517 269.686 25.5517 267.831 24.0465 266.326 22.1897 266.326 20.3328 266.326 18.8276 267.831 18.8276 269.686 18.8276 271.542 20.3328 273.046 22.1897 273.046zM22.1897 310.674C24.0465 310.674 25.5517 309.169 25.5517 307.314 25.5517 305.459 24.0465 303.954 22.1897 303.954 20.3328 303.954 18.8276 305.459 18.8276 307.314 18.8276 309.169 20.3328 310.674 22.1897 310.674zM22.1897 348.302C24.0465 348.302 25.5517 346.798 25.5517 344.942 25.5517 343.087 24.0465 341.583 22.1897 341.583 20.3328 341.583 18.8276 343.087 18.8276 344.942 18.8276 346.798 20.3328 348.302 22.1897 348.302zM22.1897 385.93C24.0465 385.93 25.5517 384.426 25.5517 382.57 25.5517 380.715 24.0465 379.21 22.1897 379.21 20.3328 379.21 18.8276 380.715 18.8276 382.57 18.8276 384.426 20.3328 385.93 22.1897 385.93zM22.1897 423.558C24.0465 423.558 25.5517 422.054 25.5517 420.199 25.5517 418.343 24.0465 416.839 22.1897 416.839 20.3328 416.839 18.8276 418.343 18.8276 420.199 18.8276 422.054 20.3328 423.558 22.1897 423.558zM22.1897 461.186C24.0465 461.186 25.5517 459.682 25.5517 457.826 25.5517 455.971 24.0465 454.467 22.1897 454.467 20.3329 454.467 18.8276 455.971 18.8276 457.826 18.8276 459.682 20.3329 461.186 22.1897 461.186zM41.0172 141.348C42.8741 141.348 44.3793 139.844 44.3793 137.988 44.3793 136.133 42.8741 134.628 41.0172 134.628 39.1604 134.628 37.6552 136.133 37.6552 137.988 37.6552 139.844 39.1604 141.348 41.0172 141.348zM41.0173 178.975C42.8741 178.975 44.3793 177.471 44.3793 175.616 44.3793 173.76 42.8741 172.256 41.0173 172.256 39.1604 172.256 37.6552 173.76 37.6552 175.616 37.6552 177.471 39.1604 178.975 41.0173 178.975zM41.0172 216.604C42.8741 216.604 44.3793 215.099 44.3793 213.244 44.3793 211.388 42.8741 209.884 41.0172 209.884 39.1604 209.884 37.6552 211.388 37.6552 213.244 37.6552 215.099 39.1604 216.604 41.0172 216.604zM41.0173 254.232C42.8741 254.232 44.3793 252.728 44.3793 250.872 44.3793 249.017 42.8741 247.512 41.0173 247.512 39.1604 247.512 37.6552 249.017 37.6552 250.872 37.6552 252.728 39.1604 254.232 41.0173 254.232zM41.0172 291.86C42.8741 291.86 44.3793 290.356 44.3793 288.5 44.3793 286.645 42.8741 285.14 41.0172 285.14 39.1604 285.14 37.6552 286.645 37.6552 288.5 37.6552 290.356 39.1604 291.86 41.0172 291.86zM41.0173 329.488C42.8741 329.488 44.3793 327.984 44.3793 326.128 44.3793 324.273 42.8741 322.769 41.0173 322.769 39.1604 322.769 37.6552 324.273 37.6552 326.128 37.6552 327.984 39.1604 329.488 41.0173 329.488zM41.0173 367.116C42.8741 367.116 44.3793 365.612 44.3793 363.756 44.3793 361.901 42.8741 360.396 41.0173 360.396 39.1604 360.396 37.6552 361.901 37.6552 363.756 37.6552 365.612 39.1604 367.116 41.0173 367.116zM41.0172 404.744C42.8741 404.744 44.3793 403.24 44.3793 401.384 44.3793 399.529 42.8741 398.025 41.0172 398.025 39.1604 398.025 37.6552 399.529 37.6552 401.384 37.6552 403.24 39.1604 404.744 41.0172 404.744zM41.0173 442.372C42.8741 442.372 44.3793 440.868 44.3793 439.012 44.3793 437.157 42.8741 435.653 41.0173 435.653 39.1604 435.653 37.6552 437.157 37.6552 439.012 37.6552 440.868 39.1604 442.372 41.0173 442.372zM59.8448 160.162C61.7016 160.162 63.2069 158.658 63.2069 156.802 63.2069 154.947 61.7016 153.442 59.8448 153.442 57.988 153.442 56.4827 154.947 56.4827 156.802 56.4828 158.658 57.988 160.162 59.8448 160.162zM59.8448 197.789C61.7016 197.789 63.2069 196.285 63.2069 194.43 63.2069 192.574 61.7016 191.07 59.8448 191.07 57.988 191.07 56.4828 192.574 56.4828 194.43 56.4828 196.285 57.988 197.789 59.8448 197.789zM59.8448 235.418C61.7016 235.418 63.2069 233.914 63.2069 232.058 63.2069 230.203 61.7016 228.698 59.8448 228.698 57.988 228.698 56.4828 230.203 56.4828 232.058 56.4828 233.914 57.988 235.418 59.8448 235.418zM59.8448 273.046C61.7016 273.046 63.2069 271.542 63.2069 269.686 63.2069 267.831 61.7016 266.326 59.8448 266.326 57.988 266.326 56.4828 267.831 56.4828 269.686 56.4828 271.542 57.988 273.046 59.8448 273.046zM59.8448 310.674C61.7016 310.674 63.2069 309.169 63.2069 307.314 63.2069 305.459 61.7016 303.954 59.8448 303.954 57.988 303.954 56.4828 305.459 56.4828 307.314 56.4828 309.169 57.988 310.674 59.8448 310.674zM59.8448 348.302C61.7017 348.302 63.2069 346.798 63.2069 344.942 63.2069 343.087 61.7017 341.583 59.8448 341.583 57.988 341.583 56.4828 343.087 56.4828 344.942 56.4828 346.798 57.988 348.302 59.8448 348.302zM59.8448 385.93C61.7017 385.93 63.2069 384.426 63.2069 382.57 63.2069 380.715 61.7017 379.21 59.8448 379.21 57.988 379.21 56.4828 380.715 56.4828 382.57 56.4828 384.426 57.988 385.93 59.8448 385.93zM59.8448 423.558C61.7017 423.558 63.2069 422.054 63.2069 420.199 63.2069 418.343 61.7017 416.839 59.8448 416.839 57.988 416.839 56.4828 418.343 56.4828 420.199 56.4828 422.054 57.988 423.558 59.8448 423.558zM78.6724 178.975C80.5292 178.975 82.0345 177.471 82.0345 175.616 82.0345 173.76 80.5292 172.256 78.6724 172.256 76.8156 172.256 75.3103 173.76 75.3103 175.616 75.3103 177.471 76.8156 178.975 78.6724 178.975zM78.6724 216.604C80.5292 216.604 82.0345 215.099 82.0345 213.244 82.0345 211.388 80.5292 209.884 78.6724 209.884 76.8156 209.884 75.3103 211.388 75.3103 213.244 75.3103 215.099 76.8156 216.604 78.6724 216.604zM78.6724 254.232C80.5292 254.232 82.0345 252.728 82.0345 250.872 82.0345 249.017 80.5292 247.512 78.6724 247.512 76.8156 247.512 75.3103 249.017 75.3103 250.872 75.3103 252.728 76.8156 254.232 78.6724 254.232zM78.6724 291.86C80.5292 291.86 82.0345 290.356 82.0345 288.5 82.0345 286.645 80.5292 285.14 78.6724 285.14 76.8156 285.14 75.3103 286.645 75.3103 288.5 75.3103 290.356 76.8156 291.86 78.6724 291.86zM78.6724 329.488C80.5292 329.488 82.0345 327.984 82.0345 326.128 82.0345 324.273 80.5292 322.769 78.6724 322.769 76.8156 322.769 75.3103 324.273 75.3103 326.128 75.3103 327.984 76.8156 329.488 78.6724 329.488zM78.6724 367.116C80.5292 367.116 82.0345 365.612 82.0345 363.756 82.0345 361.901 80.5292 360.396 78.6724 360.396 76.8156 360.396 75.3103 361.901 75.3103 363.756 75.3103 365.612 76.8156 367.116 78.6724 367.116zM78.6724 404.744C80.5292 404.744 82.0345 403.24 82.0345 401.384 82.0345 399.529 80.5292 398.025 78.6724 398.025 76.8156 398.025 75.3103 399.529 75.3103 401.384 75.3103 403.24 76.8156 404.744 78.6724 404.744zM97.5 197.789C99.3568 197.789 100.862 196.285 100.862 194.43 100.862 192.574 99.3568 191.07 97.5 191.07 95.6432 191.07 94.1379 192.574 94.1379 194.43 94.1379 196.285 95.6432 197.789 97.5 197.789zM97.5 235.418C99.3568 235.418 100.862 233.914 100.862 232.058 100.862 230.203 99.3568 228.698 97.5 228.698 95.6432 228.698 94.1379 230.203 94.1379 232.058 94.1379 233.914 95.6432 235.418 97.5 235.418zM97.5 273.046C99.3568 273.046 100.862 271.542 100.862 269.686 100.862 267.831 99.3568 266.326 97.5 266.326 95.6432 266.326 94.1379 267.831 94.1379 269.686 94.1379 271.542 95.6432 273.046 97.5 273.046zM97.5 310.674C99.3568 310.674 100.862 309.169 100.862 307.314 100.862 305.459 99.3568 303.954 97.5 303.954 95.6432 303.954 94.1379 305.459 94.1379 307.314 94.1379 309.169 95.6432 310.674 97.5 310.674zM97.5 348.302C99.3568 348.302 100.862 346.798 100.862 344.942 100.862 343.087 99.3568 341.583 97.5 341.583 95.6432 341.583 94.1379 343.087 94.1379 344.942 94.1379 346.798 95.6432 348.302 97.5 348.302zM97.5 385.93C99.3568 385.93 100.862 384.426 100.862 382.57 100.862 380.715 99.3568 379.21 97.5 379.21 95.6432 379.21 94.1379 380.715 94.1379 382.57 94.1379 384.426 95.6432 385.93 97.5 385.93zM116.328 216.604C118.184 216.604 119.69 215.099 119.69 213.244 119.69 211.388 118.184 209.884 116.328 209.884 114.471 209.884 112.965 211.388 112.965 213.244 112.965 215.099 114.471 216.604 116.328 216.604zM116.328 254.232C118.184 254.232 119.69 252.728 119.69 250.872 119.69 249.017 118.184 247.512 116.328 247.512 114.471 247.512 112.965 249.017 112.965 250.872 112.965 252.728 114.471 254.232 116.328 254.232zM116.328 291.86C118.184 291.86 119.69 290.356 119.69 288.5 119.69 286.645 118.184 285.14 116.328 285.14 114.471 285.14 112.965 286.645 112.965 288.5 112.965 290.356 114.471 291.86 116.328 291.86zM116.328 329.488C118.184 329.488 119.69 327.984 119.69 326.128 119.69 324.273 118.184 322.769 116.328 322.769 114.471 322.769 112.965 324.273 112.965 326.128 112.965 327.984 114.471 329.488 116.328 329.488zM116.328 367.116C118.184 367.116 119.69 365.612 119.69 363.756 119.69 361.901 118.184 360.396 116.328 360.396 114.471 360.396 112.965 361.901 112.965 363.756 112.965 365.612 114.471 367.116 116.328 367.116zM135.155 235.418C137.012 235.418 138.517 233.914 138.517 232.058 138.517 230.203 137.012 228.698 135.155 228.698 133.298 228.698 131.793 230.203 131.793 232.058 131.793 233.914 133.298 235.418 135.155 235.418zM135.155 273.046C137.012 273.046 138.517 271.542 138.517 269.686 138.517 267.831 137.012 266.326 135.155 266.326 133.298 266.326 131.793 267.831 131.793 269.686 131.793 271.542 133.298 273.046 135.155 273.046zM135.155 310.674C137.012 310.674 138.517 309.169 138.517 307.314 138.517 305.459 137.012 303.954 135.155 303.954 133.298 303.954 131.793 305.459 131.793 307.314 131.793 309.169 133.298 310.674 135.155 310.674zM135.155 348.302C137.012 348.302 138.517 346.798 138.517 344.942 138.517 343.087 137.012 341.583 135.155 341.583 133.298 341.583 131.793 343.087 131.793 344.942 131.793 346.798 133.298 348.302 135.155 348.302zM153.983 254.232C155.84 254.232 157.345 252.728 157.345 250.872 157.345 249.017 155.84 247.512 153.983 247.512 152.126 247.512 150.621 249.017 150.621 250.872 150.621 252.728 152.126 254.232 153.983 254.232zM153.983 291.86C155.84 291.86 157.345 290.356 157.345 288.5 157.345 286.645 155.84 285.14 153.983 285.14 152.126 285.14 150.621 286.645 150.621 288.5 150.621 290.356 152.126 291.86 153.983 291.86zM153.983 329.488C155.84 329.488 157.345 327.984 157.345 326.128 157.345 324.273 155.84 322.769 153.983 322.769 152.126 322.769 150.621 324.273 150.621 326.128 150.621 327.984 152.126 329.488 153.983 329.488zM172.81 273.046C174.667 273.046 176.172 271.542 176.172 269.686 176.172 267.831 174.667 266.326 172.81 266.326 170.954 266.326 169.448 267.831 169.448 269.686 169.448 271.542 170.954 273.046 172.81 273.046zM172.81 310.674C174.667 310.674 176.172 309.169 176.172 307.314 176.172 305.459 174.667 303.954 172.81 303.954 170.954 303.954 169.448 305.459 169.448 307.314 169.448 309.169 170.954 310.674 172.81 310.674zM191.638 291.86C193.495 291.86 195 290.356 195 288.5 195 286.645 193.495 285.14 191.638 285.14 189.781 285.14 188.276 286.645 188.276 288.5 188.276 290.356 189.781 291.86 191.638 291.86z"/><path fill="#C8CB4D" d="M70.1238 4.57874C71.3904 4.57874 72.4171 3.55375 72.4171 2.28937 72.4171 1.02499 71.3904-5.52357e-8 70.1238 0 68.8572 5.52357e-8 67.8305 1.02499 67.8305 2.28937 67.8305 3.55375 68.8572 4.57874 70.1238 4.57874zM70.1238 30.2199C71.3903 30.2199 72.4171 29.1949 72.4171 27.9305 72.4171 26.6661 71.3903 25.6411 70.1238 25.6411 68.8572 25.6411 67.8305 26.6661 67.8305 27.9305 67.8305 29.1949 68.8572 30.2199 70.1238 30.2199zM70.1238 55.8605C71.3903 55.8605 72.4171 54.8355 72.4171 53.5711 72.4171 52.3067 71.3903 51.2817 70.1238 51.2817 68.8572 51.2817 67.8305 52.3067 67.8305 53.5711 67.8305 54.8355 68.8572 55.8605 70.1238 55.8605zM70.1238 81.5016C71.3903 81.5016 72.4171 80.4766 72.4171 79.2122 72.4171 77.9478 71.3903 76.9229 70.1238 76.9229 68.8572 76.9229 67.8305 77.9478 67.8305 79.2122 67.8305 80.4766 68.8572 81.5016 70.1238 81.5016zM70.1238 107.142C71.3903 107.142 72.4171 106.117 72.4171 104.853 72.4171 103.589 71.3903 102.564 70.1238 102.564 68.8572 102.564 67.8305 103.589 67.8305 104.853 67.8305 106.117 68.8572 107.142 70.1238 107.142zM70.1238 132.784C71.3904 132.784 72.4171 131.759 72.4171 130.494 72.4171 129.23 71.3904 128.205 70.1238 128.205 68.8572 128.205 67.8305 129.23 67.8305 130.494 67.8305 131.759 68.8572 132.784 70.1238 132.784zM70.1238 158.424C71.3904 158.424 72.4171 157.399 72.4171 156.135 72.4171 154.871 71.3904 153.846 70.1238 153.846 68.8572 153.846 67.8305 154.871 67.8305 156.135 67.8305 157.399 68.8572 158.424 70.1238 158.424zM70.1238 184.065C71.3904 184.065 72.4171 183.04 72.4171 181.776 72.4171 180.512 71.3904 179.487 70.1238 179.487 68.8572 179.487 67.8305 180.512 67.8305 181.776 67.8305 183.04 68.8572 184.065 70.1238 184.065zM70.1238 209.706C71.3904 209.706 72.4171 208.681 72.4171 207.417 72.4171 206.153 71.3904 205.128 70.1238 205.128 68.8572 205.128 67.8305 206.153 67.8305 207.417 67.8305 208.681 68.8572 209.706 70.1238 209.706zM70.1238 235.347C71.3904 235.347 72.4171 234.322 72.4171 233.058 72.4171 231.794 71.3904 230.769 70.1238 230.769 68.8572 230.769 67.8305 231.794 67.8305 233.058 67.8305 234.322 68.8572 235.347 70.1238 235.347zM82.9663 17.3993C84.2329 17.3993 85.2596 16.3743 85.2596 15.1099 85.2596 13.8455 84.2329 12.8206 82.9663 12.8206 81.6998 12.8206 80.673 13.8455 80.673 15.1099 80.673 16.3743 81.6998 17.3993 82.9663 17.3993zM82.9663 43.0402C84.2329 43.0402 85.2596 42.0152 85.2596 40.7508 85.2596 39.4864 84.2329 38.4614 82.9663 38.4614 81.6998 38.4614 80.673 39.4864 80.673 40.7508 80.673 42.0152 81.6998 43.0402 82.9663 43.0402zM82.9663 68.681C84.2329 68.681 85.2596 67.656 85.2596 66.3917 85.2596 65.1273 84.2329 64.1023 82.9663 64.1023 81.6998 64.1023 80.673 65.1273 80.673 66.3917 80.673 67.656 81.6998 68.681 82.9663 68.681zM82.9663 94.3222C84.2329 94.3222 85.2596 93.2972 85.2596 92.0328 85.2596 90.7684 84.2329 89.7434 82.9663 89.7434 81.6998 89.7434 80.673 90.7684 80.673 92.0328 80.673 93.2972 81.6998 94.3222 82.9663 94.3222zM82.9663 119.963C84.2329 119.963 85.2596 118.938 85.2596 117.674 85.2596 116.409 84.2329 115.384 82.9663 115.384 81.6998 115.384 80.673 116.409 80.673 117.674 80.673 118.938 81.6998 119.963 82.9663 119.963zM82.9663 145.604C84.2329 145.604 85.2596 144.579 85.2596 143.315 85.2596 142.05 84.2329 141.025 82.9663 141.025 81.6998 141.025 80.673 142.05 80.673 143.315 80.673 144.579 81.6998 145.604 82.9663 145.604zM82.9663 171.245C84.2329 171.245 85.2596 170.22 85.2596 168.955 85.2596 167.691 84.2329 166.666 82.9663 166.666 81.6998 166.666 80.673 167.691 80.673 168.955 80.673 170.22 81.6998 171.245 82.9663 171.245zM82.9663 196.886C84.2329 196.886 85.2596 195.861 85.2596 194.596 85.2596 193.332 84.2329 192.307 82.9663 192.307 81.6998 192.307 80.673 193.332 80.673 194.596 80.673 195.861 81.6998 196.886 82.9663 196.886zM82.9663 222.527C84.2329 222.527 85.2596 221.502 85.2596 220.237 85.2596 218.973 84.2329 217.948 82.9663 217.948 81.6998 217.948 80.673 218.973 80.673 220.237 80.673 221.502 81.6998 222.527 82.9663 222.527zM95.8089 30.2199C97.0754 30.2199 98.1022 29.1949 98.1022 27.9305 98.1022 26.6661 97.0754 25.6411 95.8089 25.6411 94.5423 25.6411 93.5156 26.6661 93.5156 27.9305 93.5156 29.1949 94.5423 30.2199 95.8089 30.2199zM95.8089 55.8605C97.0754 55.8605 98.1022 54.8355 98.1022 53.5711 98.1022 52.3067 97.0754 51.2817 95.8089 51.2817 94.5423 51.2817 93.5156 52.3067 93.5156 53.5711 93.5156 54.8355 94.5423 55.8605 95.8089 55.8605zM95.8089 81.5016C97.0754 81.5016 98.1022 80.4766 98.1022 79.2122 98.1022 77.9478 97.0754 76.9229 95.8089 76.9229 94.5423 76.9229 93.5156 77.9478 93.5156 79.2122 93.5156 80.4766 94.5423 81.5016 95.8089 81.5016zM95.8089 107.142C97.0754 107.142 98.1022 106.117 98.1022 104.853 98.1022 103.589 97.0754 102.564 95.8089 102.564 94.5423 102.564 93.5156 103.589 93.5156 104.853 93.5156 106.117 94.5423 107.142 95.8089 107.142zM95.8089 132.784C97.0754 132.784 98.1022 131.759 98.1022 130.494 98.1022 129.23 97.0754 128.205 95.8089 128.205 94.5423 128.205 93.5156 129.23 93.5156 130.494 93.5156 131.759 94.5423 132.784 95.8089 132.784zM95.8089 158.424C97.0754 158.424 98.1022 157.399 98.1022 156.135 98.1022 154.871 97.0754 153.846 95.8089 153.846 94.5423 153.846 93.5156 154.871 93.5156 156.135 93.5156 157.399 94.5423 158.424 95.8089 158.424zM95.8089 184.065C97.0754 184.065 98.1022 183.04 98.1022 181.776 98.1022 180.512 97.0754 179.487 95.8089 179.487 94.5423 179.487 93.5156 180.512 93.5156 181.776 93.5156 183.04 94.5423 184.065 95.8089 184.065zM95.8089 209.706C97.0754 209.706 98.1022 208.681 98.1022 207.417 98.1022 206.153 97.0754 205.128 95.8089 205.128 94.5423 205.128 93.5156 206.153 93.5156 207.417 93.5156 208.681 94.5423 209.706 95.8089 209.706zM108.651 43.0402C109.918 43.0402 110.945 42.0152 110.945 40.7508 110.945 39.4864 109.918 38.4614 108.651 38.4614 107.385 38.4614 106.358 39.4864 106.358 40.7508 106.358 42.0152 107.385 43.0402 108.651 43.0402zM108.651 68.681C109.918 68.681 110.945 67.656 110.945 66.3917 110.945 65.1273 109.918 64.1023 108.651 64.1023 107.385 64.1023 106.358 65.1273 106.358 66.3917 106.358 67.656 107.385 68.681 108.651 68.681zM108.651 94.3222C109.918 94.3222 110.945 93.2972 110.945 92.0328 110.945 90.7684 109.918 89.7434 108.651 89.7434 107.385 89.7434 106.358 90.7684 106.358 92.0328 106.358 93.2972 107.385 94.3222 108.651 94.3222zM108.651 119.963C109.918 119.963 110.945 118.938 110.945 117.674 110.945 116.409 109.918 115.384 108.651 115.384 107.385 115.384 106.358 116.409 106.358 117.674 106.358 118.938 107.385 119.963 108.651 119.963zM108.651 145.604C109.918 145.604 110.945 144.579 110.945 143.315 110.945 142.05 109.918 141.025 108.651 141.025 107.385 141.025 106.358 142.05 106.358 143.315 106.358 144.579 107.385 145.604 108.651 145.604zM108.651 171.245C109.918 171.245 110.945 170.22 110.945 168.955 110.945 167.691 109.918 166.666 108.651 166.666 107.385 166.666 106.358 167.691 106.358 168.955 106.358 170.22 107.385 171.245 108.651 171.245zM108.651 196.886C109.918 196.886 110.945 195.861 110.945 194.596 110.945 193.332 109.918 192.307 108.651 192.307 107.385 192.307 106.358 193.332 106.358 194.596 106.358 195.861 107.385 196.886 108.651 196.886zM121.494 55.8605C122.761 55.8605 123.787 54.8355 123.787 53.5711 123.787 52.3067 122.761 51.2817 121.494 51.2817 120.227 51.2817 119.201 52.3067 119.201 53.5711 119.201 54.8355 120.227 55.8605 121.494 55.8605zM121.494 81.5016C122.761 81.5016 123.787 80.4766 123.787 79.2122 123.787 77.9478 122.761 76.9229 121.494 76.9229 120.227 76.9229 119.201 77.9478 119.201 79.2122 119.201 80.4766 120.227 81.5016 121.494 81.5016zM121.494 107.142C122.761 107.142 123.787 106.117 123.787 104.853 123.787 103.589 122.761 102.564 121.494 102.564 120.227 102.564 119.201 103.589 119.201 104.853 119.201 106.117 120.227 107.142 121.494 107.142zM121.494 132.784C122.761 132.784 123.787 131.759 123.787 130.494 123.787 129.23 122.761 128.205 121.494 128.205 120.227 128.205 119.201 129.23 119.201 130.494 119.201 131.759 120.227 132.784 121.494 132.784zM121.494 158.424C122.761 158.424 123.787 157.399 123.787 156.135 123.787 154.871 122.761 153.846 121.494 153.846 120.227 153.846 119.201 154.871 119.201 156.135 119.201 157.399 120.227 158.424 121.494 158.424zM121.494 184.065C122.761 184.065 123.787 183.04 123.787 181.776 123.787 180.512 122.761 179.487 121.494 179.487 120.227 179.487 119.201 180.512 119.201 181.776 119.201 183.04 120.227 184.065 121.494 184.065zM134.337 68.681C135.603 68.681 136.63 67.656 136.63 66.3917 136.63 65.1273 135.603 64.1023 134.337 64.1023 133.07 64.1023 132.043 65.1273 132.043 66.3917 132.043 67.656 133.07 68.681 134.337 68.681zM134.337 94.3222C135.603 94.3222 136.63 93.2972 136.63 92.0328 136.63 90.7684 135.603 89.7434 134.337 89.7434 133.07 89.7434 132.043 90.7684 132.043 92.0328 132.043 93.2972 133.07 94.3222 134.337 94.3222zM134.337 119.963C135.603 119.963 136.63 118.938 136.63 117.674 136.63 116.409 135.603 115.384 134.337 115.384 133.07 115.384 132.043 116.409 132.043 117.674 132.043 118.938 133.07 119.963 134.337 119.963zM134.337 145.604C135.603 145.604 136.63 144.579 136.63 143.315 136.63 142.05 135.603 141.025 134.337 141.025 133.07 141.025 132.043 142.05 132.043 143.315 132.043 144.579 133.07 145.604 134.337 145.604zM134.337 171.245C135.603 171.245 136.63 170.22 136.63 168.955 136.63 167.691 135.603 166.666 134.337 166.666 133.07 166.666 132.043 167.691 132.043 168.955 132.043 170.22 133.07 171.245 134.337 171.245zM147.179 81.5016C148.446 81.5016 149.472 80.4766 149.472 79.2122 149.472 77.9478 148.446 76.9229 147.179 76.9229 145.912 76.9229 144.886 77.9478 144.886 79.2122 144.886 80.4766 145.912 81.5016 147.179 81.5016zM147.179 107.142C148.446 107.142 149.472 106.117 149.472 104.853 149.472 103.589 148.446 102.564 147.179 102.564 145.912 102.564 144.886 103.589 144.886 104.853 144.886 106.117 145.912 107.142 147.179 107.142zM147.179 132.784C148.446 132.784 149.472 131.759 149.472 130.494 149.472 129.23 148.446 128.205 147.179 128.205 145.912 128.205 144.886 129.23 144.886 130.494 144.886 131.759 145.912 132.784 147.179 132.784zM147.179 158.424C148.446 158.424 149.472 157.399 149.472 156.135 149.472 154.871 148.446 153.846 147.179 153.846 145.912 153.846 144.886 154.871 144.886 156.135 144.886 157.399 145.912 158.424 147.179 158.424zM160.022 94.3222C161.288 94.3222 162.315 93.2972 162.315 92.0328 162.315 90.7684 161.288 89.7434 160.022 89.7434 158.755 89.7434 157.728 90.7684 157.728 92.0328 157.728 93.2972 158.755 94.3222 160.022 94.3222zM160.022 119.963C161.288 119.963 162.315 118.938 162.315 117.674 162.315 116.409 161.288 115.384 160.022 115.384 158.755 115.384 157.728 116.409 157.728 117.674 157.728 118.938 158.755 119.963 160.022 119.963zM160.022 145.604C161.288 145.604 162.315 144.579 162.315 143.315 162.315 142.05 161.288 141.025 160.022 141.025 158.755 141.025 157.728 142.05 157.728 143.315 157.728 144.579 158.755 145.604 160.022 145.604zM172.864 107.142C174.131 107.142 175.157 106.117 175.157 104.853 175.157 103.589 174.131 102.564 172.864 102.564 171.598 102.564 170.571 103.589 170.571 104.853 170.571 106.117 171.598 107.142 172.864 107.142zM172.864 132.784C174.131 132.784 175.157 131.759 175.157 130.494 175.157 129.23 174.131 128.205 172.864 128.205 171.598 128.205 170.571 129.23 170.571 130.494 170.571 131.759 171.598 132.784 172.864 132.784zM185.707 119.963C186.973 119.963 188 118.938 188 117.674 188 116.409 186.973 115.384 185.707 115.384 184.44 115.384 183.413 116.409 183.413 117.674 183.413 118.938 184.44 119.963 185.707 119.963z"/></svg>