<svg xmlns="http://www.w3.org/2000/svg" width="224" height="420" fill="none"><ellipse cx="220.7" cy="87.9" fill="#804EA3" fill-opacity=".6" rx="2.9" ry="2.9" transform="rotate(90 220.7 88)"/><ellipse cx="220.7" cy="120.8" fill="#804EA3" fill-opacity=".6" rx="2.9" ry="2.9" transform="rotate(90 220.7 120.8)"/><ellipse cx="220.7" cy="153.7" fill="#804EA3" fill-opacity=".6" rx="2.9" ry="2.9" transform="rotate(90 220.7 153.7)"/><ellipse cx="220.7" cy="186.5" fill="#804EA3" fill-opacity=".6" rx="2.9" ry="2.9" transform="rotate(90 220.7 186.5)"/><ellipse cx="220.7" cy="219.4" fill="#804EA3" fill-opacity=".6" rx="2.9" ry="2.9" transform="rotate(90 220.7 219.4)"/><ellipse cx="220.7" cy="252.3" fill="#804EA3" fill-opacity=".6" rx="2.9" ry="2.9" transform="rotate(90 220.7 252.3)"/><ellipse cx="220.7" cy="285.2" fill="#804EA3" fill-opacity=".6" rx="2.9" ry="2.9" transform="rotate(90 220.7 285.2)"/><ellipse cx="220.7" cy="318" fill="#804EA3" fill-opacity=".6" rx="2.9" ry="2.9" transform="rotate(90 220.7 318)"/><ellipse cx="220.7" cy="350.9" fill="#804EA3" fill-opacity=".6" rx="2.9" ry="2.9" transform="rotate(90 220.7 350.9)"/><ellipse cx="220.7" cy="383.8" fill="#804EA3" fill-opacity=".6" rx="2.9" ry="2.9" transform="rotate(90 220.7 383.8)"/><ellipse cx="220.7" cy="416.6" fill="#804EA3" fill-opacity=".6" rx="2.9" ry="2.9" transform="rotate(90 220.7 416.6)"/><ellipse cx="204.2" cy="104.4" fill="#804EA3" fill-opacity=".6" rx="2.9" ry="2.9" transform="rotate(90 204.2 104.4)"/><ellipse cx="204.2" cy="137.2" fill="#804EA3" fill-opacity=".6" rx="2.9" ry="2.9" transform="rotate(90 204.2 137.2)"/><ellipse cx="204.2" cy="170.1" fill="#804EA3" fill-opacity=".6" rx="2.9" ry="2.9" transform="rotate(90 204.2 170.1)"/><ellipse cx="204.2" cy="203" fill="#804EA3" fill-opacity=".6" rx="2.9" ry="2.9" transform="rotate(90 204.2 203)"/><ellipse cx="204.2" cy="235.8" fill="#804EA3" fill-opacity=".6" rx="2.9" ry="2.9" transform="rotate(90 204.2 235.8)"/><ellipse cx="204.2" cy="268.7" fill="#804EA3" fill-opacity=".6" rx="2.9" ry="2.9" transform="rotate(90 204.2 268.7)"/><ellipse cx="204.2" cy="301.6" fill="#804EA3" fill-opacity=".6" rx="2.9" ry="2.9" transform="rotate(90 204.2 301.6)"/><ellipse cx="204.2" cy="334.5" fill="#804EA3" fill-opacity=".6" rx="2.9" ry="2.9" transform="rotate(90 204.2 334.5)"/><ellipse cx="204.2" cy="367.3" fill="#804EA3" fill-opacity=".6" rx="2.9" ry="2.9" transform="rotate(90 204.2 367.3)"/><ellipse cx="204.2" cy="400.2" fill="#804EA3" fill-opacity=".6" rx="2.9" ry="2.9" transform="rotate(90 204.2 400.2)"/><ellipse cx="187.7" cy="120.8" fill="#804EA3" fill-opacity=".6" rx="2.9" ry="2.9" transform="rotate(90 187.7 120.8)"/><ellipse cx="187.7" cy="153.7" fill="#804EA3" fill-opacity=".6" rx="2.9" ry="2.9" transform="rotate(90 187.7 153.7)"/><ellipse cx="187.7" cy="186.5" fill="#804EA3" fill-opacity=".6" rx="2.9" ry="2.9" transform="rotate(90 187.7 186.5)"/><ellipse cx="187.7" cy="219.4" fill="#804EA3" fill-opacity=".6" rx="2.9" ry="2.9" transform="rotate(90 187.7 219.4)"/><ellipse cx="187.7" cy="252.3" fill="#804EA3" fill-opacity=".6" rx="2.9" ry="2.9" transform="rotate(90 187.7 252.3)"/><ellipse cx="187.7" cy="285.2" fill="#804EA3" fill-opacity=".6" rx="2.9" ry="2.9" transform="rotate(90 187.7 285.2)"/><ellipse cx="187.7" cy="318" fill="#804EA3" fill-opacity=".6" rx="2.9" ry="2.9" transform="rotate(90 187.7 318)"/><ellipse cx="187.7" cy="350.9" fill="#804EA3" fill-opacity=".6" rx="2.9" ry="2.9" transform="rotate(90 187.7 350.9)"/><ellipse cx="187.7" cy="383.8" fill="#804EA3" fill-opacity=".6" rx="2.9" ry="2.9" transform="rotate(90 187.7 383.8)"/><ellipse cx="171.2" cy="137.2" fill="#804EA3" fill-opacity=".6" rx="2.9" ry="2.9" transform="rotate(90 171.2 137.2)"/><ellipse cx="171.2" cy="170.1" fill="#804EA3" fill-opacity=".6" rx="2.9" ry="2.9" transform="rotate(90 171.2 170.1)"/><ellipse cx="171.2" cy="203" fill="#804EA3" fill-opacity=".6" rx="2.9" ry="2.9" transform="rotate(90 171.2 203)"/><ellipse cx="171.2" cy="235.8" fill="#804EA3" fill-opacity=".6" rx="2.9" ry="2.9" transform="rotate(90 171.2 235.8)"/><ellipse cx="171.2" cy="268.7" fill="#804EA3" fill-opacity=".6" rx="2.9" ry="2.9" transform="rotate(90 171.2 268.7)"/><ellipse cx="171.2" cy="301.6" fill="#804EA3" fill-opacity=".6" rx="2.9" ry="2.9" transform="rotate(90 171.2 301.6)"/><ellipse cx="171.2" cy="334.5" fill="#804EA3" fill-opacity=".6" rx="2.9" ry="2.9" transform="rotate(90 171.2 334.5)"/><ellipse cx="171.2" cy="367.3" fill="#804EA3" fill-opacity=".6" rx="2.9" ry="2.9" transform="rotate(90 171.2 367.3)"/><ellipse cx="154.8" cy="153.7" fill="#804EA3" fill-opacity=".6" rx="2.9" ry="2.9" transform="rotate(90 154.8 153.7)"/><ellipse cx="154.8" cy="186.5" fill="#804EA3" fill-opacity=".6" rx="2.9" ry="2.9" transform="rotate(90 154.8 186.5)"/><ellipse cx="154.8" cy="219.4" fill="#804EA3" fill-opacity=".6" rx="2.9" ry="2.9" transform="rotate(90 154.8 219.4)"/><ellipse cx="154.8" cy="252.3" fill="#804EA3" fill-opacity=".6" rx="2.9" ry="2.9" transform="rotate(90 154.8 252.3)"/><ellipse cx="154.8" cy="285.2" fill="#804EA3" fill-opacity=".6" rx="2.9" ry="2.9" transform="rotate(90 154.8 285.2)"/><ellipse cx="154.8" cy="318" fill="#804EA3" fill-opacity=".6" rx="2.9" ry="2.9" transform="rotate(90 154.8 318)"/><ellipse cx="154.8" cy="350.9" fill="#804EA3" fill-opacity=".6" rx="2.9" ry="2.9" transform="rotate(90 154.8 350.9)"/><ellipse cx="138.3" cy="170.1" fill="#804EA3" fill-opacity=".6" rx="2.9" ry="2.9" transform="rotate(90 138.3 170.1)"/><ellipse cx="138.3" cy="203" fill="#804EA3" fill-opacity=".6" rx="2.9" ry="2.9" transform="rotate(90 138.3 203)"/><ellipse cx="138.3" cy="235.8" fill="#804EA3" fill-opacity=".6" rx="2.9" ry="2.9" transform="rotate(90 138.3 235.8)"/><ellipse cx="138.3" cy="268.7" fill="#804EA3" fill-opacity=".6" rx="2.9" ry="2.9" transform="rotate(90 138.3 268.7)"/><ellipse cx="138.3" cy="301.6" fill="#804EA3" fill-opacity=".6" rx="2.9" ry="2.9" transform="rotate(90 138.3 301.6)"/><ellipse cx="138.3" cy="334.5" fill="#804EA3" fill-opacity=".6" rx="2.9" ry="2.9" transform="rotate(90 138.3 334.5)"/><ellipse cx="121.8" cy="186.5" fill="#804EA3" fill-opacity=".6" rx="2.9" ry="2.9" transform="rotate(90 121.8 186.5)"/><ellipse cx="121.8" cy="219.4" fill="#804EA3" fill-opacity=".6" rx="2.9" ry="2.9" transform="rotate(90 121.8 219.4)"/><ellipse cx="121.8" cy="252.3" fill="#804EA3" fill-opacity=".6" rx="2.9" ry="2.9" transform="rotate(90 121.8 252.3)"/><ellipse cx="121.8" cy="285.2" fill="#804EA3" fill-opacity=".6" rx="2.9" ry="2.9" transform="rotate(90 121.8 285.2)"/><ellipse cx="121.8" cy="318" fill="#804EA3" fill-opacity=".6" rx="2.9" ry="2.9" transform="rotate(90 121.8 318)"/><ellipse cx="105.4" cy="203" fill="#804EA3" fill-opacity=".6" rx="2.9" ry="2.9" transform="rotate(90 105.4 203)"/><ellipse cx="105.4" cy="235.8" fill="#804EA3" fill-opacity=".6" rx="2.9" ry="2.9" transform="rotate(90 105.4 235.8)"/><ellipse cx="105.4" cy="268.7" fill="#804EA3" fill-opacity=".6" rx="2.9" ry="2.9" transform="rotate(90 105.4 268.7)"/><ellipse cx="105.4" cy="301.6" fill="#804EA3" fill-opacity=".6" rx="2.9" ry="2.9" transform="rotate(90 105.4 301.6)"/><ellipse cx="88.9" cy="219.4" fill="#804EA3" fill-opacity=".6" rx="2.9" ry="2.9" transform="rotate(90 88.9 219.4)"/><ellipse cx="88.9" cy="252.3" fill="#804EA3" fill-opacity=".6" rx="2.9" ry="2.9" transform="rotate(90 88.9 252.3)"/><ellipse cx="88.9" cy="285.2" fill="#804EA3" fill-opacity=".6" rx="2.9" ry="2.9" transform="rotate(90 88.9 285.2)"/><ellipse cx="72.4" cy="235.8" fill="#804EA3" fill-opacity=".6" rx="2.9" ry="2.9" transform="rotate(90 72.4 235.8)"/><ellipse cx="72.4" cy="268.7" fill="#804EA3" fill-opacity=".6" rx="2.9" ry="2.9" transform="rotate(90 72.4 268.7)"/><ellipse cx="55.9" cy="252.3" fill="#804EA3" fill-opacity=".6" rx="2.9" ry="2.9" transform="rotate(90 56 252.3)"/><ellipse cx="115.7" cy="2.3" fill="#fff" rx="2.3" ry="2.3" transform="rotate(90 115.7 2.3)"/><ellipse cx="115.7" cy="27.5" fill="#fff" rx="2.3" ry="2.3" transform="rotate(90 115.7 27.5)"/><ellipse cx="115.7" cy="52.8" fill="#fff" rx="2.3" ry="2.3" transform="rotate(90 115.7 52.8)"/><ellipse cx="115.7" cy="78.1" fill="#fff" rx="2.3" ry="2.3" transform="rotate(90 115.7 78)"/><ellipse cx="115.7" cy="103.4" fill="#fff" rx="2.3" ry="2.3" transform="rotate(90 115.7 103.4)"/><ellipse cx="115.7" cy="128.6" fill="#fff" rx="2.3" ry="2.3" transform="rotate(90 115.7 128.6)"/><ellipse cx="115.7" cy="153.9" fill="#fff" rx="2.3" ry="2.3" transform="rotate(90 115.7 154)"/><ellipse cx="115.7" cy="179.2" fill="#fff" rx="2.3" ry="2.3" transform="rotate(90 115.7 179.2)"/><ellipse cx="115.7" cy="204.5" fill="#fff" rx="2.3" ry="2.3" transform="rotate(90 115.7 204.5)"/><ellipse cx="115.7" cy="229.7" fill="#fff" rx="2.3" ry="2.3" transform="rotate(90 115.7 229.7)"/><ellipse cx="103.1" cy="14.9" fill="#fff" rx="2.3" ry="2.3" transform="rotate(90 103.1 14.9)"/><ellipse cx="103.1" cy="40.2" fill="#fff" rx="2.3" ry="2.3" transform="rotate(90 103.1 40.2)"/><ellipse cx="103.1" cy="65.4" fill="#fff" rx="2.3" ry="2.3" transform="rotate(90 103.1 65.4)"/><ellipse cx="103.1" cy="90.7" fill="#fff" rx="2.3" ry="2.3" transform="rotate(90 103.1 90.7)"/><ellipse cx="103.1" cy="116" fill="#fff" rx="2.3" ry="2.3" transform="rotate(90 103.1 116)"/><ellipse cx="103.1" cy="141.3" fill="#fff" rx="2.3" ry="2.3" transform="rotate(90 103.1 141.3)"/><ellipse cx="103.1" cy="166.6" fill="#fff" rx="2.3" ry="2.3" transform="rotate(90 103.1 166.6)"/><ellipse cx="103.1" cy="191.8" fill="#fff" rx="2.3" ry="2.3" transform="rotate(90 103.1 191.8)"/><ellipse cx="103.1" cy="217.1" fill="#fff" rx="2.3" ry="2.3" transform="rotate(90 103.1 217.1)"/><ellipse cx="90.5" cy="27.5" fill="#fff" rx="2.3" ry="2.3" transform="rotate(90 90.5 27.5)"/><ellipse cx="90.5" cy="52.8" fill="#fff" rx="2.3" ry="2.3" transform="rotate(90 90.5 52.8)"/><ellipse cx="90.5" cy="78.1" fill="#fff" rx="2.3" ry="2.3" transform="rotate(90 90.5 78)"/><ellipse cx="90.5" cy="103.4" fill="#fff" rx="2.3" ry="2.3" transform="rotate(90 90.5 103.4)"/><ellipse cx="90.5" cy="128.6" fill="#fff" rx="2.3" ry="2.3" transform="rotate(90 90.5 128.6)"/><ellipse cx="90.5" cy="153.9" fill="#fff" rx="2.3" ry="2.3" transform="rotate(90 90.5 154)"/><ellipse cx="90.5" cy="179.2" fill="#fff" rx="2.3" ry="2.3" transform="rotate(90 90.5 179.2)"/><ellipse cx="90.5" cy="204.5" fill="#fff" rx="2.3" ry="2.3" transform="rotate(90 90.5 204.5)"/><ellipse cx="77.9" cy="40.2" fill="#fff" rx="2.3" ry="2.3" transform="rotate(90 78 40.2)"/><ellipse cx="77.9" cy="65.4" fill="#fff" rx="2.3" ry="2.3" transform="rotate(90 78 65.4)"/><ellipse cx="77.9" cy="90.7" fill="#fff" rx="2.3" ry="2.3" transform="rotate(90 78 90.7)"/><ellipse cx="77.9" cy="116" fill="#fff" rx="2.3" ry="2.3" transform="rotate(90 78 116)"/><ellipse cx="77.9" cy="141.3" fill="#fff" rx="2.3" ry="2.3" transform="rotate(90 78 141.3)"/><ellipse cx="77.9" cy="166.6" fill="#fff" rx="2.3" ry="2.3" transform="rotate(90 78 166.6)"/><ellipse cx="77.9" cy="191.8" fill="#fff" rx="2.3" ry="2.3" transform="rotate(90 78 191.8)"/><ellipse cx="65.3" cy="52.8" fill="#fff" rx="2.3" ry="2.3" transform="rotate(90 65.3 52.8)"/><ellipse cx="65.3" cy="78.1" fill="#fff" rx="2.3" ry="2.3" transform="rotate(90 65.3 78)"/><ellipse cx="65.3" cy="103.4" fill="#fff" rx="2.3" ry="2.3" transform="rotate(90 65.3 103.4)"/><ellipse cx="65.3" cy="128.6" fill="#fff" rx="2.3" ry="2.3" transform="rotate(90 65.3 128.6)"/><ellipse cx="65.3" cy="153.9" fill="#fff" rx="2.3" ry="2.3" transform="rotate(90 65.3 154)"/><ellipse cx="65.3" cy="179.2" fill="#fff" rx="2.3" ry="2.3" transform="rotate(90 65.3 179.2)"/><ellipse cx="52.7" cy="65.4" fill="#fff" rx="2.3" ry="2.3" transform="rotate(90 52.7 65.4)"/><ellipse cx="52.7" cy="90.7" fill="#fff" rx="2.3" ry="2.3" transform="rotate(90 52.7 90.7)"/><ellipse cx="52.7" cy="116" fill="#fff" rx="2.3" ry="2.3" transform="rotate(90 52.7 116)"/><ellipse cx="52.7" cy="141.3" fill="#fff" rx="2.3" ry="2.3" transform="rotate(90 52.7 141.3)"/><ellipse cx="52.7" cy="166.6" fill="#fff" rx="2.3" ry="2.3" transform="rotate(90 52.7 166.6)"/><ellipse cx="40.1" cy="78.1" fill="#fff" rx="2.3" ry="2.3" transform="rotate(90 40 78)"/><ellipse cx="40.1" cy="103.4" fill="#fff" rx="2.3" ry="2.3" transform="rotate(90 40 103.4)"/><ellipse cx="40.1" cy="128.6" fill="#fff" rx="2.3" ry="2.3" transform="rotate(90 40 128.6)"/><ellipse cx="40.1" cy="153.9" fill="#fff" rx="2.3" ry="2.3" transform="rotate(90 40 154)"/><ellipse cx="27.5" cy="90.7" fill="#fff" rx="2.3" ry="2.3" transform="rotate(90 27.5 90.7)"/><ellipse cx="27.5" cy="116" fill="#fff" rx="2.3" ry="2.3" transform="rotate(90 27.5 116)"/><ellipse cx="27.5" cy="141.3" fill="#fff" rx="2.3" ry="2.3" transform="rotate(90 27.5 141.3)"/><ellipse cx="14.9" cy="103.4" fill="#fff" rx="2.3" ry="2.3" transform="rotate(90 14.9 103.4)"/><ellipse cx="14.9" cy="128.6" fill="#fff" rx="2.3" ry="2.3" transform="rotate(90 14.9 128.6)"/><ellipse cx="2.3" cy="116" fill="#fff" rx="2.3" ry="2.3" transform="rotate(90 2.3 116)"/></svg>