<svg xmlns="http://www.w3.org/2000/svg" width="127" height="136" fill="none"><ellipse cx="1.1" cy="113.3" fill="#A285B7" rx="1.1" ry="1.1" transform="rotate(-90 1.1 113.3)"/><ellipse cx="1.1" cy="100.8" fill="#A285B7" rx="1.1" ry="1.1" transform="rotate(-90 1.1 100.8)"/><ellipse cx="1.1" cy="88.4" fill="#A285B7" rx="1.1" ry="1.1" transform="rotate(-90 1.1 88.4)"/><ellipse cx="1.1" cy="75.9" fill="#A285B7" rx="1.1" ry="1.1" transform="rotate(-90 1.1 75.9)"/><ellipse cx="1.1" cy="63.4" fill="#A285B7" rx="1.1" ry="1.1" transform="rotate(-90 1.1 63.4)"/><ellipse cx="1.1" cy="51" fill="#A285B7" rx="1.1" ry="1.1" transform="rotate(-90 1.1 51)"/><ellipse cx="1.1" cy="38.5" fill="#A285B7" rx="1.1" ry="1.1" transform="rotate(-90 1.1 38.5)"/><ellipse cx="1.1" cy="26" fill="#A285B7" rx="1.1" ry="1.1" transform="rotate(-90 1.1 26)"/><ellipse cx="1.1" cy="13.6" fill="#A285B7" rx="1.1" ry="1.1" transform="rotate(-90 1.1 13.6)"/><ellipse cx="1.1" cy="1.1" fill="#A285B7" rx="1.1" ry="1.1" transform="rotate(-90 1.1 1.1)"/><ellipse cx="7.3" cy="107" fill="#A285B7" rx="1.1" ry="1.1" transform="rotate(-90 7.3 107)"/><ellipse cx="7.3" cy="94.6" fill="#A285B7" rx="1.1" ry="1.1" transform="rotate(-90 7.3 94.6)"/><ellipse cx="7.3" cy="82.1" fill="#A285B7" rx="1.1" ry="1.1" transform="rotate(-90 7.3 82.1)"/><ellipse cx="7.3" cy="69.7" fill="#A285B7" rx="1.1" ry="1.1" transform="rotate(-90 7.3 69.7)"/><ellipse cx="7.3" cy="57.2" fill="#A285B7" rx="1.1" ry="1.1" transform="rotate(-90 7.3 57.2)"/><ellipse cx="7.3" cy="44.7" fill="#A285B7" rx="1.1" ry="1.1" transform="rotate(-90 7.3 44.7)"/><ellipse cx="7.3" cy="32.3" fill="#A285B7" rx="1.1" ry="1.1" transform="rotate(-90 7.3 32.3)"/><ellipse cx="7.3" cy="19.8" fill="#A285B7" rx="1.1" ry="1.1" transform="rotate(-90 7.3 19.8)"/><ellipse cx="7.3" cy="7.3" fill="#A285B7" rx="1.1" ry="1.1" transform="rotate(-90 7.3 7.3)"/><ellipse cx="13.5" cy="100.8" fill="#A285B7" rx="1.1" ry="1.1" transform="rotate(-90 13.5 100.8)"/><ellipse cx="13.5" cy="88.4" fill="#A285B7" rx="1.1" ry="1.1" transform="rotate(-90 13.5 88.4)"/><ellipse cx="13.5" cy="75.9" fill="#A285B7" rx="1.1" ry="1.1" transform="rotate(-90 13.5 75.9)"/><ellipse cx="13.5" cy="63.4" fill="#A285B7" rx="1.1" ry="1.1" transform="rotate(-90 13.5 63.4)"/><ellipse cx="13.5" cy="51" fill="#A285B7" rx="1.1" ry="1.1" transform="rotate(-90 13.5 51)"/><ellipse cx="13.5" cy="38.5" fill="#A285B7" rx="1.1" ry="1.1" transform="rotate(-90 13.5 38.5)"/><ellipse cx="13.5" cy="26" fill="#A285B7" rx="1.1" ry="1.1" transform="rotate(-90 13.5 26)"/><ellipse cx="13.5" cy="13.6" fill="#A285B7" rx="1.1" ry="1.1" transform="rotate(-90 13.5 13.6)"/><ellipse cx="19.7" cy="94.6" fill="#A285B7" rx="1.1" ry="1.1" transform="rotate(-90 19.7 94.6)"/><ellipse cx="19.7" cy="82.1" fill="#A285B7" rx="1.1" ry="1.1" transform="rotate(-90 19.7 82.1)"/><ellipse cx="19.7" cy="69.7" fill="#A285B7" rx="1.1" ry="1.1" transform="rotate(-90 19.7 69.7)"/><ellipse cx="19.7" cy="57.2" fill="#A285B7" rx="1.1" ry="1.1" transform="rotate(-90 19.7 57.2)"/><ellipse cx="19.7" cy="44.7" fill="#A285B7" rx="1.1" ry="1.1" transform="rotate(-90 19.7 44.7)"/><ellipse cx="19.7" cy="32.3" fill="#A285B7" rx="1.1" ry="1.1" transform="rotate(-90 19.7 32.3)"/><ellipse cx="19.7" cy="19.8" fill="#A285B7" rx="1.1" ry="1.1" transform="rotate(-90 19.7 19.8)"/><ellipse cx="25.9" cy="88.4" fill="#A285B7" rx="1.1" ry="1.1" transform="rotate(-90 26 88.4)"/><ellipse cx="25.9" cy="75.9" fill="#A285B7" rx="1.1" ry="1.1" transform="rotate(-90 26 75.9)"/><ellipse cx="25.9" cy="63.4" fill="#A285B7" rx="1.1" ry="1.1" transform="rotate(-90 26 63.4)"/><ellipse cx="25.9" cy="51" fill="#A285B7" rx="1.1" ry="1.1" transform="rotate(-90 26 51)"/><ellipse cx="25.9" cy="38.5" fill="#A285B7" rx="1.1" ry="1.1" transform="rotate(-90 26 38.5)"/><ellipse cx="25.9" cy="26" fill="#A285B7" rx="1.1" ry="1.1" transform="rotate(-90 26 26)"/><ellipse cx="32.1" cy="82.1" fill="#A285B7" rx="1.1" ry="1.1" transform="rotate(-90 32.1 82.1)"/><ellipse cx="32.1" cy="69.7" fill="#A285B7" rx="1.1" ry="1.1" transform="rotate(-90 32.1 69.7)"/><ellipse cx="32.1" cy="57.2" fill="#A285B7" rx="1.1" ry="1.1" transform="rotate(-90 32.1 57.2)"/><ellipse cx="32.1" cy="44.7" fill="#A285B7" rx="1.1" ry="1.1" transform="rotate(-90 32.1 44.7)"/><ellipse cx="32.1" cy="32.3" fill="#A285B7" rx="1.1" ry="1.1" transform="rotate(-90 32.1 32.3)"/><ellipse cx="38.4" cy="75.9" fill="#A285B7" rx="1.1" ry="1.1" transform="rotate(-90 38.4 75.9)"/><ellipse cx="38.4" cy="63.4" fill="#A285B7" rx="1.1" ry="1.1" transform="rotate(-90 38.4 63.4)"/><ellipse cx="38.4" cy="51" fill="#A285B7" rx="1.1" ry="1.1" transform="rotate(-90 38.4 51)"/><ellipse cx="38.4" cy="38.5" fill="#A285B7" rx="1.1" ry="1.1" transform="rotate(-90 38.4 38.5)"/><ellipse cx="44.6" cy="69.7" fill="#A285B7" rx="1.1" ry="1.1" transform="rotate(-90 44.6 69.7)"/><ellipse cx="44.6" cy="57.2" fill="#A285B7" rx="1.1" ry="1.1" transform="rotate(-90 44.6 57.2)"/><ellipse cx="44.6" cy="44.7" fill="#A285B7" rx="1.1" ry="1.1" transform="rotate(-90 44.6 44.7)"/><ellipse cx="50.8" cy="63.4" fill="#A285B7" rx="1.1" ry="1.1" transform="rotate(-90 50.8 63.4)"/><ellipse cx="50.8" cy="51" fill="#A285B7" rx="1.1" ry="1.1" transform="rotate(-90 50.8 51)"/><ellipse cx="57" cy="57.2" fill="#A285B7" rx="1.1" ry="1.1" transform="rotate(-90 57 57.2)"/><ellipse cx="125.9" cy="134.8" fill="#A285B7" rx="1.1" ry="1.1" transform="rotate(180 125.9 134.8)"/><ellipse cx="113.4" cy="134.8" fill="#A285B7" rx="1.1" ry="1.1" transform="rotate(180 113.4 134.8)"/><ellipse cx="101" cy="134.8" fill="#A285B7" rx="1.1" ry="1.1" transform="rotate(180 101 134.8)"/><ellipse cx="88.6" cy="134.8" fill="#A285B7" rx="1.1" ry="1.1" transform="rotate(180 88.6 134.8)"/><ellipse cx="76.1" cy="134.8" fill="#A285B7" rx="1.1" ry="1.1" transform="rotate(180 76.1 134.8)"/><ellipse cx="63.7" cy="134.8" fill="#A285B7" rx="1.1" ry="1.1" transform="rotate(180 63.7 134.8)"/><ellipse cx="51.2" cy="134.8" fill="#A285B7" rx="1.1" ry="1.1" transform="rotate(180 51.2 134.8)"/><ellipse cx="38.8" cy="134.8" fill="#A285B7" rx="1.1" ry="1.1" transform="rotate(180 38.8 134.8)"/><ellipse cx="26.4" cy="134.8" fill="#A285B7" rx="1.1" ry="1.1" transform="rotate(180 26.4 134.8)"/><ellipse cx="13.9" cy="134.8" fill="#A285B7" rx="1.1" ry="1.1" transform="rotate(180 14 134.8)"/><ellipse cx="119.7" cy="128.6" fill="#A285B7" rx="1.1" ry="1.1" transform="rotate(180 119.7 128.6)"/><ellipse cx="107.2" cy="128.6" fill="#A285B7" rx="1.1" ry="1.1" transform="rotate(180 107.2 128.6)"/><ellipse cx="94.8" cy="128.6" fill="#A285B7" rx="1.1" ry="1.1" transform="rotate(180 94.8 128.6)"/><ellipse cx="82.3" cy="128.6" fill="#A285B7" rx="1.1" ry="1.1" transform="rotate(180 82.3 128.6)"/><ellipse cx="69.9" cy="128.6" fill="#A285B7" rx="1.1" ry="1.1" transform="rotate(180 69.9 128.6)"/><ellipse cx="57.5" cy="128.6" fill="#A285B7" rx="1.1" ry="1.1" transform="rotate(180 57.5 128.6)"/><ellipse cx="45" cy="128.6" fill="#A285B7" rx="1.1" ry="1.1" transform="rotate(180 45 128.6)"/><ellipse cx="32.6" cy="128.6" fill="#A285B7" rx="1.1" ry="1.1" transform="rotate(180 32.6 128.6)"/><ellipse cx="20.1" cy="128.6" fill="#A285B7" rx="1.1" ry="1.1" transform="rotate(180 20.1 128.6)"/><ellipse cx="113.4" cy="122.3" fill="#A285B7" rx="1.1" ry="1.1" transform="rotate(180 113.4 122.3)"/><ellipse cx="101" cy="122.3" fill="#A285B7" rx="1.1" ry="1.1" transform="rotate(180 101 122.3)"/><ellipse cx="88.6" cy="122.3" fill="#A285B7" rx="1.1" ry="1.1" transform="rotate(180 88.6 122.3)"/><ellipse cx="76.1" cy="122.3" fill="#A285B7" rx="1.1" ry="1.1" transform="rotate(180 76.1 122.3)"/><ellipse cx="63.7" cy="122.3" fill="#A285B7" rx="1.1" ry="1.1" transform="rotate(180 63.7 122.3)"/><ellipse cx="51.2" cy="122.3" fill="#A285B7" rx="1.1" ry="1.1" transform="rotate(180 51.2 122.3)"/><ellipse cx="38.8" cy="122.3" fill="#A285B7" rx="1.1" ry="1.1" transform="rotate(180 38.8 122.3)"/><ellipse cx="26.4" cy="122.3" fill="#A285B7" rx="1.1" ry="1.1" transform="rotate(180 26.4 122.3)"/><ellipse cx="107.2" cy="116.1" fill="#A285B7" rx="1.1" ry="1.1" transform="rotate(180 107.2 116.1)"/><ellipse cx="94.8" cy="116.1" fill="#A285B7" rx="1.1" ry="1.1" transform="rotate(180 94.8 116.1)"/><ellipse cx="82.3" cy="116.1" fill="#A285B7" rx="1.1" ry="1.1" transform="rotate(180 82.3 116.1)"/><ellipse cx="69.9" cy="116.1" fill="#A285B7" rx="1.1" ry="1.1" transform="rotate(180 69.9 116.1)"/><ellipse cx="57.5" cy="116.1" fill="#A285B7" rx="1.1" ry="1.1" transform="rotate(180 57.5 116.1)"/><ellipse cx="45" cy="116.1" fill="#A285B7" rx="1.1" ry="1.1" transform="rotate(180 45 116.1)"/><ellipse cx="32.6" cy="116.1" fill="#A285B7" rx="1.1" ry="1.1" transform="rotate(180 32.6 116.1)"/><ellipse cx="101" cy="109.9" fill="#A285B7" rx="1.1" ry="1.1" transform="rotate(180 101 110)"/><ellipse cx="88.6" cy="109.9" fill="#A285B7" rx="1.1" ry="1.1" transform="rotate(180 88.6 110)"/><ellipse cx="76.1" cy="109.9" fill="#A285B7" rx="1.1" ry="1.1" transform="rotate(180 76.1 110)"/><ellipse cx="63.7" cy="109.9" fill="#A285B7" rx="1.1" ry="1.1" transform="rotate(180 63.7 110)"/><ellipse cx="51.2" cy="109.9" fill="#A285B7" rx="1.1" ry="1.1" transform="rotate(180 51.2 110)"/><ellipse cx="38.8" cy="109.9" fill="#A285B7" rx="1.1" ry="1.1" transform="rotate(180 38.8 110)"/><ellipse cx="94.8" cy="103.7" fill="#A285B7" rx="1.1" ry="1.1" transform="rotate(180 94.8 103.7)"/><ellipse cx="82.3" cy="103.7" fill="#A285B7" rx="1.1" ry="1.1" transform="rotate(180 82.3 103.7)"/><ellipse cx="69.9" cy="103.7" fill="#A285B7" rx="1.1" ry="1.1" transform="rotate(180 69.9 103.7)"/><ellipse cx="57.5" cy="103.7" fill="#A285B7" rx="1.1" ry="1.1" transform="rotate(180 57.5 103.7)"/><ellipse cx="45" cy="103.7" fill="#A285B7" rx="1.1" ry="1.1" transform="rotate(180 45 103.7)"/><ellipse cx="88.6" cy="97.5" fill="#A285B7" rx="1.1" ry="1.1" transform="rotate(180 88.6 97.5)"/><ellipse cx="76.1" cy="97.5" fill="#A285B7" rx="1.1" ry="1.1" transform="rotate(180 76.1 97.5)"/><ellipse cx="63.7" cy="97.5" fill="#A285B7" rx="1.1" ry="1.1" transform="rotate(180 63.7 97.5)"/><ellipse cx="51.2" cy="97.5" fill="#A285B7" rx="1.1" ry="1.1" transform="rotate(180 51.2 97.5)"/><ellipse cx="82.3" cy="91.3" fill="#A285B7" rx="1.1" ry="1.1" transform="rotate(180 82.3 91.3)"/><ellipse cx="69.9" cy="91.3" fill="#A285B7" rx="1.1" ry="1.1" transform="rotate(180 69.9 91.3)"/><ellipse cx="57.5" cy="91.3" fill="#A285B7" rx="1.1" ry="1.1" transform="rotate(180 57.5 91.3)"/><ellipse cx="76.1" cy="85" fill="#A285B7" rx="1.1" ry="1.1" transform="rotate(180 76.1 85)"/><ellipse cx="63.7" cy="85" fill="#A285B7" rx="1.1" ry="1.1" transform="rotate(180 63.7 85)"/><ellipse cx="69.9" cy="78.8" fill="#A285B7" rx="1.1" ry="1.1" transform="rotate(180 69.9 78.8)"/></svg>