<svg xmlns="http://www.w3.org/2000/svg" width="157" height="309" fill="none"><ellipse cx="153.7" cy="3" rx="3" ry="3" transform="rotate(90 153.7 3)"/><ellipse cx="153.7" cy="36.6" rx="3" ry="3" transform="rotate(90 153.7 36.6)"/><ellipse cx="153.7" cy="70.1" rx="3" ry="3" transform="rotate(90 153.7 70.1)"/><ellipse cx="153.7" cy="103.7" rx="3" ry="3" transform="rotate(90 153.7 103.7)"/><ellipse cx="153.7" cy="137.3" rx="3" ry="3" transform="rotate(90 153.7 137.3)"/><ellipse cx="153.7" cy="170.8" rx="3" ry="3" transform="rotate(90 153.7 170.8)"/><ellipse cx="153.7" cy="204.4" rx="3" ry="3" transform="rotate(90 153.7 204.4)"/><ellipse cx="153.7" cy="237.9" rx="3" ry="3" transform="rotate(90 153.7 238)"/><ellipse cx="153.7" cy="271.5" rx="3" ry="3" transform="rotate(90 153.7 271.5)"/><ellipse cx="153.7" cy="305.1" rx="3" ry="3" transform="rotate(90 153.7 305)"/><ellipse cx="137" cy="19.8" rx="3" ry="3" transform="rotate(90 137 19.8)"/><ellipse cx="137" cy="53.3" rx="3" ry="3" transform="rotate(90 137 53.3)"/><ellipse cx="137" cy="86.9" rx="3" ry="3" transform="rotate(90 137 87)"/><ellipse cx="137" cy="120.5" rx="3" ry="3" transform="rotate(90 137 120.5)"/><ellipse cx="137" cy="154" rx="3" ry="3" transform="rotate(90 137 154)"/><ellipse cx="137" cy="187.6" rx="3" ry="3" transform="rotate(90 137 187.6)"/><ellipse cx="137" cy="221.2" rx="3" ry="3" transform="rotate(90 137 221.2)"/><ellipse cx="137" cy="254.7" rx="3" ry="3" transform="rotate(90 137 254.7)"/><ellipse cx="137" cy="288.3" rx="3" ry="3" transform="rotate(90 137 288.3)"/><ellipse cx="120.2" cy="36.6" rx="3" ry="3" transform="rotate(90 120.2 36.6)"/><ellipse cx="120.2" cy="70.1" rx="3" ry="3" transform="rotate(90 120.2 70.1)"/><ellipse cx="120.2" cy="103.7" rx="3" ry="3" transform="rotate(90 120.2 103.7)"/><ellipse cx="120.2" cy="137.3" rx="3" ry="3" transform="rotate(90 120.2 137.3)"/><ellipse cx="120.2" cy="170.8" rx="3" ry="3" transform="rotate(90 120.2 170.8)"/><ellipse cx="120.2" cy="204.4" rx="3" ry="3" transform="rotate(90 120.2 204.4)"/><ellipse cx="120.2" cy="237.9" rx="3" ry="3" transform="rotate(90 120.2 238)"/><ellipse cx="120.2" cy="271.5" rx="3" ry="3" transform="rotate(90 120.2 271.5)"/><ellipse cx="103.5" cy="53.3" rx="3" ry="3" transform="rotate(90 103.5 53.3)"/><ellipse cx="103.5" cy="86.9" rx="3" ry="3" transform="rotate(90 103.5 87)"/><ellipse cx="103.5" cy="120.5" rx="3" ry="3" transform="rotate(90 103.5 120.5)"/><ellipse cx="103.5" cy="154" rx="3" ry="3" transform="rotate(90 103.5 154)"/><ellipse cx="103.5" cy="187.6" rx="3" ry="3" transform="rotate(90 103.5 187.6)"/><ellipse cx="103.5" cy="221.2" rx="3" ry="3" transform="rotate(90 103.5 221.2)"/><ellipse cx="103.5" cy="254.7" rx="3" ry="3" transform="rotate(90 103.5 254.7)"/><ellipse cx="86.7" cy="70.1" rx="3" ry="3" transform="rotate(90 86.7 70.1)"/><ellipse cx="86.7" cy="103.7" rx="3" ry="3" transform="rotate(90 86.7 103.7)"/><ellipse cx="86.7" cy="137.3" rx="3" ry="3" transform="rotate(90 86.7 137.3)"/><ellipse cx="86.7" cy="170.8" rx="3" ry="3" transform="rotate(90 86.7 170.8)"/><ellipse cx="86.7" cy="204.4" rx="3" ry="3" transform="rotate(90 86.7 204.4)"/><ellipse cx="86.7" cy="237.9" rx="3" ry="3" transform="rotate(90 86.7 238)"/><ellipse cx="70" cy="86.9" rx="3" ry="3" transform="rotate(90 70 87)"/><ellipse cx="70" cy="120.5" rx="3" ry="3" transform="rotate(90 70 120.5)"/><ellipse cx="70" cy="154" rx="3" ry="3" transform="rotate(90 70 154)"/><ellipse cx="70" cy="187.6" rx="3" ry="3" transform="rotate(90 70 187.6)"/><ellipse cx="70" cy="221.2" rx="3" ry="3" transform="rotate(90 70 221.2)"/><ellipse cx="53.2" cy="103.7" rx="3" ry="3" transform="rotate(90 53.2 103.7)"/><ellipse cx="53.2" cy="137.3" rx="3" ry="3" transform="rotate(90 53.2 137.3)"/><ellipse cx="53.2" cy="170.8" rx="3" ry="3" transform="rotate(90 53.2 170.8)"/><ellipse cx="53.2" cy="204.4" rx="3" ry="3" transform="rotate(90 53.2 204.4)"/><ellipse cx="36.5" cy="120.5" rx="3" ry="3" transform="rotate(90 36.5 120.5)"/><ellipse cx="36.5" cy="154" rx="3" ry="3" transform="rotate(90 36.5 154)"/><ellipse cx="36.5" cy="187.6" rx="3" ry="3" transform="rotate(90 36.5 187.6)"/><ellipse cx="19.7" cy="137.3" rx="3" ry="3" transform="rotate(90 19.7 137.3)"/><ellipse cx="19.7" cy="170.8" rx="3" ry="3" transform="rotate(90 19.7 170.8)"/><ellipse cx="3" cy="154" rx="3" ry="3" transform="rotate(90 3 154)"/></svg>