<svg xmlns="http://www.w3.org/2000/svg" width="195" height="383" fill="none"><path fill="#fff" fill-opacity=".7" d="M3.36207 6.7193C5.21889 6.7193 6.72414 5.21513 6.72414 3.35965 6.72414 1.50417 5.21889-8.09773e-8 3.36207 0 1.50525 8.09773e-8-8.12929e-8 1.50417 0 3.35965 8.12929e-8 5.21513 1.50525 6.7193 3.36207 6.7193zM3.36207 44.3477C5.21889 44.3477 6.72414 42.8436 6.72414 40.9881 6.72414 39.1326 5.21889 37.6284 3.36207 37.6284 1.50525 37.6284-8.12929e-8 39.1326 0 40.9881 8.12929e-8 42.8436 1.50525 44.3477 3.36207 44.3477zM3.36207 81.9752C5.21889 81.9752 6.72414 80.471 6.72414 78.6155 6.72414 76.76 5.21889 75.2559 3.36207 75.2559 1.50525 75.2559-8.12929e-8 76.76 0 78.6155 8.12929e-8 80.471 1.50525 81.9752 3.36207 81.9752zM3.36207 119.604C5.21889 119.604 6.72414 118.099 6.72414 116.244 6.72414 114.388 5.21889 112.884 3.36207 112.884 1.50525 112.884-8.12929e-8 114.388 0 116.244 8.12929e-8 118.099 1.50525 119.604 3.36207 119.604zM3.36209 157.232C5.21891 157.232 6.72416 155.728 6.72416 153.872 6.72416 152.017 5.21891 150.512 3.36209 150.512 1.50527 150.512.0000228069 152.017.0000228882 153.872.0000229695 155.728 1.50527 157.232 3.36209 157.232zM3.36209 194.86C5.21891 194.86 6.72416 193.356 6.72416 191.5 6.72416 189.645 5.21891 188.14 3.36209 188.14 1.50527 188.14.0000228069 189.645.0000228882 191.5.0000229695 193.356 1.50527 194.86 3.36209 194.86zM3.36209 232.488C5.21891 232.488 6.72416 230.984 6.72416 229.128 6.72416 227.273 5.21891 225.769 3.36209 225.769 1.50527 225.769.0000228069 227.273.0000228882 229.128.0000229695 230.984 1.50527 232.488 3.36209 232.488zM3.36209 270.116C5.21891 270.116 6.72416 268.612 6.72416 266.756 6.72416 264.901 5.21891 263.397 3.36209 263.397 1.50527 263.397.0000228069 264.901.0000228882 266.756.0000229695 268.612 1.50527 270.116 3.36209 270.116zM3.36209 307.744C5.21891 307.744 6.72416 306.24 6.72416 304.384 6.72416 302.529 5.21891 301.025 3.36209 301.025 1.50527 301.025.0000228069 302.529.0000228882 304.384.0000229695 306.24 1.50527 307.744 3.36209 307.744zM3.36209 345.372C5.21891 345.372 6.72416 343.868 6.72416 342.012 6.72416 340.157 5.21891 338.653 3.36209 338.653 1.50527 338.653.0000228069 340.157.0000228882 342.012.0000229695 343.868 1.50527 345.372 3.36209 345.372zM3.36209 383C5.21891 383 6.72416 381.496 6.72416 379.64 6.72416 377.785 5.21891 376.281 3.36209 376.281 1.50527 376.281.0000228069 377.785.0000228882 379.64.0000229695 381.496 1.50527 383 3.36209 383zM22.1897 25.5335C24.0465 25.5335 25.5517 24.0293 25.5517 22.1739 25.5517 20.3184 24.0465 18.8142 22.1897 18.8142 20.3328 18.8142 18.8276 20.3184 18.8276 22.1739 18.8276 24.0293 20.3328 25.5335 22.1897 25.5335zM22.1897 63.1617C24.0465 63.1617 25.5517 61.6575 25.5517 59.802 25.5517 57.9465 24.0465 56.4424 22.1897 56.4424 20.3328 56.4424 18.8276 57.9465 18.8276 59.802 18.8276 61.6575 20.3328 63.1617 22.1897 63.1617zM22.1897 100.789C24.0465 100.789 25.5517 99.2852 25.5517 97.4297 25.5517 95.5742 24.0465 94.0701 22.1897 94.0701 20.3328 94.0701 18.8276 95.5742 18.8276 97.4297 18.8276 99.2852 20.3328 100.789 22.1897 100.789zM22.1897 138.418C24.0465 138.418 25.5517 136.914 25.5517 135.058 25.5517 133.203 24.0465 131.698 22.1897 131.698 20.3328 131.698 18.8276 133.203 18.8276 135.058 18.8276 136.914 20.3328 138.418 22.1897 138.418zM22.1897 176.046C24.0465 176.046 25.5517 174.542 25.5517 172.686 25.5517 170.831 24.0465 169.326 22.1897 169.326 20.3328 169.326 18.8276 170.831 18.8276 172.686 18.8276 174.542 20.3328 176.046 22.1897 176.046zM22.1897 213.674C24.0465 213.674 25.5517 212.169 25.5517 210.314 25.5517 208.459 24.0465 206.954 22.1897 206.954 20.3328 206.954 18.8276 208.459 18.8276 210.314 18.8276 212.169 20.3328 213.674 22.1897 213.674zM22.1897 251.302C24.0465 251.302 25.5517 249.798 25.5517 247.942 25.5517 246.087 24.0465 244.583 22.1897 244.583 20.3328 244.583 18.8276 246.087 18.8276 247.942 18.8276 249.798 20.3328 251.302 22.1897 251.302zM22.1897 288.93C24.0465 288.93 25.5517 287.426 25.5517 285.57 25.5517 283.715 24.0465 282.21 22.1897 282.21 20.3328 282.21 18.8276 283.715 18.8276 285.57 18.8276 287.426 20.3328 288.93 22.1897 288.93zM22.1897 326.558C24.0465 326.558 25.5517 325.054 25.5517 323.199 25.5517 321.343 24.0465 319.839 22.1897 319.839 20.3328 319.839 18.8276 321.343 18.8276 323.199 18.8276 325.054 20.3328 326.558 22.1897 326.558zM22.1897 364.186C24.0465 364.186 25.5517 362.682 25.5517 360.826 25.5517 358.971 24.0465 357.467 22.1897 357.467 20.3329 357.467 18.8276 358.971 18.8276 360.826 18.8276 362.682 20.3329 364.186 22.1897 364.186zM41.0172 44.3477C42.8741 44.3477 44.3793 42.8436 44.3793 40.9881 44.3793 39.1326 42.8741 37.6284 41.0172 37.6284 39.1604 37.6284 37.6552 39.1326 37.6552 40.9881 37.6552 42.8436 39.1604 44.3477 41.0172 44.3477zM41.0173 81.9752C42.8741 81.9752 44.3793 80.471 44.3793 78.6155 44.3793 76.76 42.8741 75.2559 41.0173 75.2559 39.1604 75.2559 37.6552 76.76 37.6552 78.6155 37.6552 80.471 39.1604 81.9752 41.0173 81.9752zM41.0172 119.604C42.8741 119.604 44.3793 118.099 44.3793 116.244 44.3793 114.388 42.8741 112.884 41.0172 112.884 39.1604 112.884 37.6552 114.388 37.6552 116.244 37.6552 118.099 39.1604 119.604 41.0172 119.604zM41.0173 157.232C42.8741 157.232 44.3793 155.728 44.3793 153.872 44.3793 152.017 42.8741 150.512 41.0173 150.512 39.1604 150.512 37.6552 152.017 37.6552 153.872 37.6552 155.728 39.1604 157.232 41.0173 157.232zM41.0172 194.86C42.8741 194.86 44.3793 193.356 44.3793 191.5 44.3793 189.645 42.8741 188.14 41.0172 188.14 39.1604 188.14 37.6552 189.645 37.6552 191.5 37.6552 193.356 39.1604 194.86 41.0172 194.86zM41.0173 232.488C42.8741 232.488 44.3793 230.984 44.3793 229.128 44.3793 227.273 42.8741 225.769 41.0173 225.769 39.1604 225.769 37.6552 227.273 37.6552 229.128 37.6552 230.984 39.1604 232.488 41.0173 232.488zM41.0173 270.116C42.8741 270.116 44.3793 268.612 44.3793 266.756 44.3793 264.901 42.8741 263.396 41.0173 263.396 39.1604 263.396 37.6552 264.901 37.6552 266.756 37.6552 268.612 39.1604 270.116 41.0173 270.116zM41.0172 307.744C42.8741 307.744 44.3793 306.24 44.3793 304.384 44.3793 302.529 42.8741 301.025 41.0172 301.025 39.1604 301.025 37.6552 302.529 37.6552 304.384 37.6552 306.24 39.1604 307.744 41.0172 307.744zM41.0173 345.372C42.8741 345.372 44.3793 343.868 44.3793 342.012 44.3793 340.157 42.8741 338.653 41.0173 338.653 39.1604 338.653 37.6552 340.157 37.6552 342.012 37.6552 343.868 39.1604 345.372 41.0173 345.372zM59.8448 63.1617C61.7016 63.1617 63.2069 61.6575 63.2069 59.802 63.2069 57.9465 61.7016 56.4424 59.8448 56.4424 57.988 56.4424 56.4827 57.9465 56.4827 59.802 56.4828 61.6575 57.988 63.1617 59.8448 63.1617zM59.8448 100.789C61.7016 100.789 63.2069 99.2852 63.2069 97.4297 63.2069 95.5742 61.7016 94.0701 59.8448 94.0701 57.988 94.0701 56.4828 95.5742 56.4828 97.4297 56.4828 99.2852 57.988 100.789 59.8448 100.789zM59.8448 138.418C61.7016 138.418 63.2069 136.914 63.2069 135.058 63.2069 133.203 61.7016 131.698 59.8448 131.698 57.988 131.698 56.4828 133.203 56.4828 135.058 56.4828 136.914 57.988 138.418 59.8448 138.418zM59.8448 176.046C61.7016 176.046 63.2069 174.542 63.2069 172.686 63.2069 170.831 61.7016 169.326 59.8448 169.326 57.988 169.326 56.4828 170.831 56.4828 172.686 56.4828 174.542 57.988 176.046 59.8448 176.046zM59.8448 213.674C61.7016 213.674 63.2069 212.169 63.2069 210.314 63.2069 208.459 61.7016 206.954 59.8448 206.954 57.988 206.954 56.4828 208.459 56.4828 210.314 56.4828 212.169 57.988 213.674 59.8448 213.674zM59.8448 251.302C61.7017 251.302 63.2069 249.798 63.2069 247.942 63.2069 246.087 61.7017 244.583 59.8448 244.583 57.988 244.583 56.4828 246.087 56.4828 247.942 56.4828 249.798 57.988 251.302 59.8448 251.302zM59.8448 288.93C61.7017 288.93 63.2069 287.426 63.2069 285.57 63.2069 283.715 61.7017 282.21 59.8448 282.21 57.988 282.21 56.4828 283.715 56.4828 285.57 56.4828 287.426 57.988 288.93 59.8448 288.93zM59.8448 326.558C61.7017 326.558 63.2069 325.054 63.2069 323.199 63.2069 321.343 61.7017 319.839 59.8448 319.839 57.988 319.839 56.4828 321.343 56.4828 323.199 56.4828 325.054 57.988 326.558 59.8448 326.558zM78.6724 81.9752C80.5292 81.9752 82.0345 80.471 82.0345 78.6155 82.0345 76.76 80.5292 75.2559 78.6724 75.2559 76.8156 75.2559 75.3103 76.76 75.3103 78.6155 75.3103 80.471 76.8156 81.9752 78.6724 81.9752zM78.6724 119.604C80.5292 119.604 82.0345 118.099 82.0345 116.244 82.0345 114.388 80.5292 112.884 78.6724 112.884 76.8156 112.884 75.3103 114.388 75.3103 116.244 75.3103 118.099 76.8156 119.604 78.6724 119.604zM78.6724 157.232C80.5292 157.232 82.0345 155.728 82.0345 153.872 82.0345 152.017 80.5292 150.512 78.6724 150.512 76.8156 150.512 75.3103 152.017 75.3103 153.872 75.3103 155.728 76.8156 157.232 78.6724 157.232zM78.6724 194.86C80.5292 194.86 82.0345 193.356 82.0345 191.5 82.0345 189.645 80.5292 188.14 78.6724 188.14 76.8156 188.14 75.3103 189.645 75.3103 191.5 75.3103 193.356 76.8156 194.86 78.6724 194.86zM78.6724 232.488C80.5292 232.488 82.0345 230.984 82.0345 229.128 82.0345 227.273 80.5292 225.769 78.6724 225.769 76.8156 225.769 75.3103 227.273 75.3103 229.128 75.3103 230.984 76.8156 232.488 78.6724 232.488zM78.6724 270.116C80.5292 270.116 82.0345 268.612 82.0345 266.756 82.0345 264.901 80.5292 263.396 78.6724 263.396 76.8156 263.396 75.3103 264.901 75.3103 266.756 75.3103 268.612 76.8156 270.116 78.6724 270.116zM78.6724 307.744C80.5292 307.744 82.0345 306.24 82.0345 304.384 82.0345 302.529 80.5292 301.025 78.6724 301.025 76.8156 301.025 75.3103 302.529 75.3103 304.384 75.3103 306.24 76.8156 307.744 78.6724 307.744zM97.5 100.789C99.3568 100.789 100.862 99.2852 100.862 97.4297 100.862 95.5742 99.3568 94.0701 97.5 94.0701 95.6432 94.0701 94.1379 95.5742 94.1379 97.4297 94.1379 99.2852 95.6432 100.789 97.5 100.789zM97.5 138.418C99.3568 138.418 100.862 136.914 100.862 135.058 100.862 133.203 99.3568 131.698 97.5 131.698 95.6432 131.698 94.1379 133.203 94.1379 135.058 94.1379 136.914 95.6432 138.418 97.5 138.418zM97.5 176.046C99.3568 176.046 100.862 174.542 100.862 172.686 100.862 170.831 99.3568 169.326 97.5 169.326 95.6432 169.326 94.1379 170.831 94.1379 172.686 94.1379 174.542 95.6432 176.046 97.5 176.046zM97.5 213.674C99.3568 213.674 100.862 212.169 100.862 210.314 100.862 208.459 99.3568 206.954 97.5 206.954 95.6432 206.954 94.1379 208.459 94.1379 210.314 94.1379 212.169 95.6432 213.674 97.5 213.674zM97.5 251.302C99.3568 251.302 100.862 249.798 100.862 247.942 100.862 246.087 99.3568 244.583 97.5 244.583 95.6432 244.583 94.1379 246.087 94.1379 247.942 94.1379 249.798 95.6432 251.302 97.5 251.302zM97.5 288.93C99.3568 288.93 100.862 287.426 100.862 285.57 100.862 283.715 99.3568 282.21 97.5 282.21 95.6432 282.21 94.1379 283.715 94.1379 285.57 94.1379 287.426 95.6432 288.93 97.5 288.93zM116.328 119.604C118.184 119.604 119.69 118.099 119.69 116.244 119.69 114.388 118.184 112.884 116.328 112.884 114.471 112.884 112.965 114.388 112.965 116.244 112.965 118.099 114.471 119.604 116.328 119.604zM116.328 157.232C118.184 157.232 119.69 155.728 119.69 153.872 119.69 152.017 118.184 150.512 116.328 150.512 114.471 150.512 112.965 152.017 112.965 153.872 112.965 155.728 114.471 157.232 116.328 157.232zM116.328 194.86C118.184 194.86 119.69 193.356 119.69 191.5 119.69 189.645 118.184 188.14 116.328 188.14 114.471 188.14 112.965 189.645 112.965 191.5 112.965 193.356 114.471 194.86 116.328 194.86zM116.328 232.488C118.184 232.488 119.69 230.984 119.69 229.128 119.69 227.273 118.184 225.769 116.328 225.769 114.471 225.769 112.965 227.273 112.965 229.128 112.965 230.984 114.471 232.488 116.328 232.488zM116.328 270.116C118.184 270.116 119.69 268.612 119.69 266.756 119.69 264.901 118.184 263.396 116.328 263.396 114.471 263.396 112.965 264.901 112.965 266.756 112.965 268.612 114.471 270.116 116.328 270.116zM135.155 138.418C137.012 138.418 138.517 136.914 138.517 135.058 138.517 133.203 137.012 131.698 135.155 131.698 133.298 131.698 131.793 133.203 131.793 135.058 131.793 136.914 133.298 138.418 135.155 138.418zM135.155 176.046C137.012 176.046 138.517 174.542 138.517 172.686 138.517 170.831 137.012 169.326 135.155 169.326 133.298 169.326 131.793 170.831 131.793 172.686 131.793 174.542 133.298 176.046 135.155 176.046zM135.155 213.674C137.012 213.674 138.517 212.169 138.517 210.314 138.517 208.459 137.012 206.954 135.155 206.954 133.298 206.954 131.793 208.459 131.793 210.314 131.793 212.169 133.298 213.674 135.155 213.674zM135.155 251.302C137.012 251.302 138.517 249.798 138.517 247.942 138.517 246.087 137.012 244.583 135.155 244.583 133.298 244.583 131.793 246.087 131.793 247.942 131.793 249.798 133.298 251.302 135.155 251.302zM153.983 157.232C155.84 157.232 157.345 155.728 157.345 153.872 157.345 152.017 155.84 150.512 153.983 150.512 152.126 150.512 150.621 152.017 150.621 153.872 150.621 155.728 152.126 157.232 153.983 157.232zM153.983 194.86C155.84 194.86 157.345 193.356 157.345 191.5 157.345 189.645 155.84 188.14 153.983 188.14 152.126 188.14 150.621 189.645 150.621 191.5 150.621 193.356 152.126 194.86 153.983 194.86zM153.983 232.488C155.84 232.488 157.345 230.984 157.345 229.128 157.345 227.273 155.84 225.769 153.983 225.769 152.126 225.769 150.621 227.273 150.621 229.128 150.621 230.984 152.126 232.488 153.983 232.488zM172.81 176.046C174.667 176.046 176.172 174.542 176.172 172.686 176.172 170.831 174.667 169.326 172.81 169.326 170.954 169.326 169.448 170.831 169.448 172.686 169.448 174.542 170.954 176.046 172.81 176.046zM172.81 213.674C174.667 213.674 176.172 212.169 176.172 210.314 176.172 208.459 174.667 206.954 172.81 206.954 170.954 206.954 169.448 208.459 169.448 210.314 169.448 212.169 170.954 213.674 172.81 213.674zM191.638 194.86C193.495 194.86 195 193.356 195 191.5 195 189.645 193.495 188.14 191.638 188.14 189.781 188.14 188.276 189.645 188.276 191.5 188.276 193.356 189.781 194.86 191.638 194.86z"/></svg>