<svg xmlns="http://www.w3.org/2000/svg" width="258" height="232" fill="none"><ellipse cx="2.3" cy="229.7" fill="#804EA3" rx="2.3" ry="2.3" transform="rotate(-90 2.3 229.7)"/><ellipse cx="2.3" cy="204.5" fill="#804EA3" rx="2.3" ry="2.3" transform="rotate(-90 2.3 204.5)"/><ellipse cx="2.3" cy="179.2" fill="#804EA3" rx="2.3" ry="2.3" transform="rotate(-90 2.3 179.2)"/><ellipse cx="2.3" cy="153.9" fill="#804EA3" rx="2.3" ry="2.3" transform="rotate(-90 2.3 154)"/><ellipse cx="2.3" cy="128.6" fill="#804EA3" rx="2.3" ry="2.3" transform="rotate(-90 2.3 128.6)"/><ellipse cx="2.3" cy="103.4" fill="#804EA3" rx="2.3" ry="2.3" transform="rotate(-90 2.3 103.4)"/><ellipse cx="2.3" cy="78.1" fill="#804EA3" rx="2.3" ry="2.3" transform="rotate(-90 2.3 78)"/><ellipse cx="2.3" cy="52.8" fill="#804EA3" rx="2.3" ry="2.3" transform="rotate(-90 2.3 52.8)"/><ellipse cx="2.3" cy="27.5" fill="#804EA3" rx="2.3" ry="2.3" transform="rotate(-90 2.3 27.5)"/><ellipse cx="2.3" cy="2.3" fill="#804EA3" rx="2.3" ry="2.3" transform="rotate(-90 2.3 2.3)"/><ellipse cx="14.9" cy="217.1" fill="#804EA3" rx="2.3" ry="2.3" transform="rotate(-90 14.9 217.1)"/><ellipse cx="14.9" cy="191.8" fill="#804EA3" rx="2.3" ry="2.3" transform="rotate(-90 14.9 191.8)"/><ellipse cx="14.9" cy="166.6" fill="#804EA3" rx="2.3" ry="2.3" transform="rotate(-90 14.9 166.6)"/><ellipse cx="14.9" cy="141.3" fill="#804EA3" rx="2.3" ry="2.3" transform="rotate(-90 14.9 141.3)"/><ellipse cx="14.9" cy="116" fill="#804EA3" rx="2.3" ry="2.3" transform="rotate(-90 14.9 116)"/><ellipse cx="14.9" cy="90.7" fill="#804EA3" rx="2.3" ry="2.3" transform="rotate(-90 14.9 90.7)"/><ellipse cx="14.9" cy="65.4" fill="#804EA3" rx="2.3" ry="2.3" transform="rotate(-90 14.9 65.4)"/><ellipse cx="14.9" cy="40.2" fill="#804EA3" rx="2.3" ry="2.3" transform="rotate(-90 14.9 40.2)"/><ellipse cx="14.9" cy="14.9" fill="#804EA3" rx="2.3" ry="2.3" transform="rotate(-90 14.9 14.9)"/><ellipse cx="27.5" cy="204.5" fill="#804EA3" rx="2.3" ry="2.3" transform="rotate(-90 27.5 204.5)"/><ellipse cx="27.5" cy="179.2" fill="#804EA3" rx="2.3" ry="2.3" transform="rotate(-90 27.5 179.2)"/><ellipse cx="27.5" cy="153.9" fill="#804EA3" rx="2.3" ry="2.3" transform="rotate(-90 27.5 154)"/><ellipse cx="27.5" cy="128.6" fill="#804EA3" rx="2.3" ry="2.3" transform="rotate(-90 27.5 128.6)"/><ellipse cx="27.5" cy="103.4" fill="#804EA3" rx="2.3" ry="2.3" transform="rotate(-90 27.5 103.4)"/><ellipse cx="27.5" cy="78.1" fill="#804EA3" rx="2.3" ry="2.3" transform="rotate(-90 27.5 78)"/><ellipse cx="27.5" cy="52.8" fill="#804EA3" rx="2.3" ry="2.3" transform="rotate(-90 27.5 52.8)"/><ellipse cx="27.5" cy="27.5" fill="#804EA3" rx="2.3" ry="2.3" transform="rotate(-90 27.5 27.5)"/><ellipse cx="40.1" cy="191.8" fill="#804EA3" rx="2.3" ry="2.3" transform="rotate(-90 40 191.8)"/><ellipse cx="40.1" cy="166.6" fill="#804EA3" rx="2.3" ry="2.3" transform="rotate(-90 40 166.6)"/><ellipse cx="40.1" cy="141.3" fill="#804EA3" rx="2.3" ry="2.3" transform="rotate(-90 40 141.3)"/><ellipse cx="40.1" cy="116" fill="#804EA3" rx="2.3" ry="2.3" transform="rotate(-90 40 116)"/><ellipse cx="40.1" cy="90.7" fill="#804EA3" rx="2.3" ry="2.3" transform="rotate(-90 40 90.7)"/><ellipse cx="40.1" cy="65.4" fill="#804EA3" rx="2.3" ry="2.3" transform="rotate(-90 40 65.4)"/><ellipse cx="40.1" cy="40.2" fill="#804EA3" rx="2.3" ry="2.3" transform="rotate(-90 40 40.2)"/><ellipse cx="52.7" cy="179.2" fill="#804EA3" rx="2.3" ry="2.3" transform="rotate(-90 52.7 179.2)"/><ellipse cx="52.7" cy="153.9" fill="#804EA3" rx="2.3" ry="2.3" transform="rotate(-90 52.7 154)"/><ellipse cx="52.7" cy="128.6" fill="#804EA3" rx="2.3" ry="2.3" transform="rotate(-90 52.7 128.6)"/><ellipse cx="52.7" cy="103.4" fill="#804EA3" rx="2.3" ry="2.3" transform="rotate(-90 52.7 103.4)"/><ellipse cx="52.7" cy="78.1" fill="#804EA3" rx="2.3" ry="2.3" transform="rotate(-90 52.7 78)"/><ellipse cx="52.7" cy="52.8" fill="#804EA3" rx="2.3" ry="2.3" transform="rotate(-90 52.7 52.8)"/><ellipse cx="65.3" cy="166.6" fill="#804EA3" rx="2.3" ry="2.3" transform="rotate(-90 65.3 166.6)"/><ellipse cx="65.3" cy="141.3" fill="#804EA3" rx="2.3" ry="2.3" transform="rotate(-90 65.3 141.3)"/><ellipse cx="65.3" cy="116" fill="#804EA3" rx="2.3" ry="2.3" transform="rotate(-90 65.3 116)"/><ellipse cx="65.3" cy="90.7" fill="#804EA3" rx="2.3" ry="2.3" transform="rotate(-90 65.3 90.7)"/><ellipse cx="65.3" cy="65.4" fill="#804EA3" rx="2.3" ry="2.3" transform="rotate(-90 65.3 65.4)"/><ellipse cx="77.9" cy="153.9" fill="#804EA3" rx="2.3" ry="2.3" transform="rotate(-90 78 154)"/><ellipse cx="77.9" cy="128.6" fill="#804EA3" rx="2.3" ry="2.3" transform="rotate(-90 78 128.6)"/><ellipse cx="77.9" cy="103.4" fill="#804EA3" rx="2.3" ry="2.3" transform="rotate(-90 78 103.4)"/><ellipse cx="77.9" cy="78.1" fill="#804EA3" rx="2.3" ry="2.3" transform="rotate(-90 78 78)"/><ellipse cx="90.5" cy="141.3" fill="#804EA3" rx="2.3" ry="2.3" transform="rotate(-90 90.5 141.3)"/><ellipse cx="90.5" cy="116" fill="#804EA3" rx="2.3" ry="2.3" transform="rotate(-90 90.5 116)"/><ellipse cx="90.5" cy="90.7" fill="#804EA3" rx="2.3" ry="2.3" transform="rotate(-90 90.5 90.7)"/><ellipse cx="103.1" cy="128.6" fill="#804EA3" rx="2.3" ry="2.3" transform="rotate(-90 103.1 128.6)"/><ellipse cx="103.1" cy="103.4" fill="#804EA3" rx="2.3" ry="2.3" transform="rotate(-90 103.1 103.4)"/><ellipse cx="115.7" cy="116" fill="#804EA3" rx="2.3" ry="2.3" transform="rotate(-90 115.7 116)"/><ellipse cx="255.7" cy="228.7" fill="#804EA3" rx="2.3" ry="2.3" transform="rotate(180 255.7 228.7)"/><ellipse cx="230.5" cy="228.7" fill="#804EA3" rx="2.3" ry="2.3" transform="rotate(180 230.5 228.7)"/><ellipse cx="205.2" cy="228.7" fill="#804EA3" rx="2.3" ry="2.3" transform="rotate(180 205.2 228.7)"/><ellipse cx="179.9" cy="228.7" fill="#804EA3" rx="2.3" ry="2.3" transform="rotate(180 180 228.7)"/><ellipse cx="154.6" cy="228.7" fill="#804EA3" rx="2.3" ry="2.3" transform="rotate(180 154.6 228.7)"/><ellipse cx="129.4" cy="228.7" fill="#804EA3" rx="2.3" ry="2.3" transform="rotate(180 129.4 228.7)"/><ellipse cx="104.1" cy="228.7" fill="#804EA3" rx="2.3" ry="2.3" transform="rotate(180 104 228.7)"/><ellipse cx="78.8" cy="228.7" fill="#804EA3" rx="2.3" ry="2.3" transform="rotate(180 78.8 228.7)"/><ellipse cx="53.5" cy="228.7" fill="#804EA3" rx="2.3" ry="2.3" transform="rotate(180 53.5 228.7)"/><ellipse cx="28.3" cy="228.7" fill="#804EA3" rx="2.3" ry="2.3" transform="rotate(180 28.3 228.7)"/><ellipse cx="243.1" cy="216.1" fill="#804EA3" rx="2.3" ry="2.3" transform="rotate(180 243.1 216.1)"/><ellipse cx="217.8" cy="216.1" fill="#804EA3" rx="2.3" ry="2.3" transform="rotate(180 217.8 216.1)"/><ellipse cx="192.6" cy="216.1" fill="#804EA3" rx="2.3" ry="2.3" transform="rotate(180 192.6 216.1)"/><ellipse cx="167.3" cy="216.1" fill="#804EA3" rx="2.3" ry="2.3" transform="rotate(180 167.3 216.1)"/><ellipse cx="142" cy="216.1" fill="#804EA3" rx="2.3" ry="2.3" transform="rotate(180 142 216.1)"/><ellipse cx="116.7" cy="216.1" fill="#804EA3" rx="2.3" ry="2.3" transform="rotate(180 116.7 216.1)"/><ellipse cx="91.4" cy="216.1" fill="#804EA3" rx="2.3" ry="2.3" transform="rotate(180 91.4 216.1)"/><ellipse cx="66.2" cy="216.1" fill="#804EA3" rx="2.3" ry="2.3" transform="rotate(180 66.2 216.1)"/><ellipse cx="40.9" cy="216.1" fill="#804EA3" rx="2.3" ry="2.3" transform="rotate(180 40.9 216.1)"/><ellipse cx="230.5" cy="203.5" fill="#804EA3" rx="2.3" ry="2.3" transform="rotate(180 230.5 203.5)"/><ellipse cx="205.2" cy="203.5" fill="#804EA3" rx="2.3" ry="2.3" transform="rotate(180 205.2 203.5)"/><ellipse cx="179.9" cy="203.5" fill="#804EA3" rx="2.3" ry="2.3" transform="rotate(180 180 203.5)"/><ellipse cx="154.6" cy="203.5" fill="#804EA3" rx="2.3" ry="2.3" transform="rotate(180 154.6 203.5)"/><ellipse cx="129.4" cy="203.5" fill="#804EA3" rx="2.3" ry="2.3" transform="rotate(180 129.4 203.5)"/><ellipse cx="104.1" cy="203.5" fill="#804EA3" rx="2.3" ry="2.3" transform="rotate(180 104 203.5)"/><ellipse cx="78.8" cy="203.5" fill="#804EA3" rx="2.3" ry="2.3" transform="rotate(180 78.8 203.5)"/><ellipse cx="53.5" cy="203.5" fill="#804EA3" rx="2.3" ry="2.3" transform="rotate(180 53.5 203.5)"/><ellipse cx="217.8" cy="190.9" fill="#804EA3" rx="2.3" ry="2.3" transform="rotate(180 217.8 191)"/><ellipse cx="192.6" cy="190.9" fill="#804EA3" rx="2.3" ry="2.3" transform="rotate(180 192.6 191)"/><ellipse cx="167.3" cy="190.9" fill="#804EA3" rx="2.3" ry="2.3" transform="rotate(180 167.3 191)"/><ellipse cx="142" cy="190.9" fill="#804EA3" rx="2.3" ry="2.3" transform="rotate(180 142 191)"/><ellipse cx="116.7" cy="190.9" fill="#804EA3" rx="2.3" ry="2.3" transform="rotate(180 116.7 191)"/><ellipse cx="91.4" cy="190.9" fill="#804EA3" rx="2.3" ry="2.3" transform="rotate(180 91.4 191)"/><ellipse cx="66.2" cy="190.9" fill="#804EA3" rx="2.3" ry="2.3" transform="rotate(180 66.2 191)"/><ellipse cx="205.2" cy="178.3" fill="#804EA3" rx="2.3" ry="2.3" transform="rotate(180 205.2 178.3)"/><ellipse cx="179.9" cy="178.3" fill="#804EA3" rx="2.3" ry="2.3" transform="rotate(180 180 178.3)"/><ellipse cx="154.6" cy="178.3" fill="#804EA3" rx="2.3" ry="2.3" transform="rotate(180 154.6 178.3)"/><ellipse cx="129.4" cy="178.3" fill="#804EA3" rx="2.3" ry="2.3" transform="rotate(180 129.4 178.3)"/><ellipse cx="104.1" cy="178.3" fill="#804EA3" rx="2.3" ry="2.3" transform="rotate(180 104 178.3)"/><ellipse cx="78.8" cy="178.3" fill="#804EA3" rx="2.3" ry="2.3" transform="rotate(180 78.8 178.3)"/><ellipse cx="192.6" cy="165.7" fill="#804EA3" rx="2.3" ry="2.3" transform="rotate(180 192.6 165.7)"/><ellipse cx="167.3" cy="165.7" fill="#804EA3" rx="2.3" ry="2.3" transform="rotate(180 167.3 165.7)"/><ellipse cx="142" cy="165.7" fill="#804EA3" rx="2.3" ry="2.3" transform="rotate(180 142 165.7)"/><ellipse cx="116.7" cy="165.7" fill="#804EA3" rx="2.3" ry="2.3" transform="rotate(180 116.7 165.7)"/><ellipse cx="91.4" cy="165.7" fill="#804EA3" rx="2.3" ry="2.3" transform="rotate(180 91.4 165.7)"/><ellipse cx="179.9" cy="153.1" fill="#804EA3" rx="2.3" ry="2.3" transform="rotate(180 180 153)"/><ellipse cx="154.6" cy="153.1" fill="#804EA3" rx="2.3" ry="2.3" transform="rotate(180 154.6 153)"/><ellipse cx="129.4" cy="153.1" fill="#804EA3" rx="2.3" ry="2.3" transform="rotate(180 129.4 153)"/><ellipse cx="104.1" cy="153.1" fill="#804EA3" rx="2.3" ry="2.3" transform="rotate(180 104 153)"/><ellipse cx="167.3" cy="140.5" fill="#804EA3" rx="2.3" ry="2.3" transform="rotate(180 167.3 140.5)"/><ellipse cx="142" cy="140.5" fill="#804EA3" rx="2.3" ry="2.3" transform="rotate(180 142 140.5)"/><ellipse cx="116.7" cy="140.5" fill="#804EA3" rx="2.3" ry="2.3" transform="rotate(180 116.7 140.5)"/><ellipse cx="154.6" cy="127.9" fill="#804EA3" rx="2.3" ry="2.3" transform="rotate(180 154.6 127.9)"/><ellipse cx="129.4" cy="127.9" fill="#804EA3" rx="2.3" ry="2.3" transform="rotate(180 129.4 127.9)"/><ellipse cx="142" cy="115.3" fill="#804EA3" rx="2.3" ry="2.3" transform="rotate(180 142 115.3)"/></svg>