<svg width="132" height="259" viewBox="0 0 132 259" fill="none" xmlns="http://www.w3.org/2000/svg">
<ellipse rx="2.27193" ry="2.27586" transform="matrix(4.38122e-08 1 1 -4.36108e-08 2.27586 2.27193)" fill="white" fill-opacity="0.73"/>
<ellipse rx="2.27193" ry="2.27586" transform="matrix(4.38122e-08 1 1 -4.36108e-08 2.27586 27.7177)" fill="white" fill-opacity="0.73"/>
<ellipse rx="2.27193" ry="2.27586" transform="matrix(4.38122e-08 1 1 -4.36108e-08 2.27586 53.163)" fill="white" fill-opacity="0.73"/>
<ellipse rx="2.27193" ry="2.27586" transform="matrix(4.38122e-08 1 1 -4.36108e-08 2.27586 78.6088)" fill="white" fill-opacity="0.73"/>
<ellipse rx="2.27193" ry="2.27586" transform="matrix(4.38122e-08 1 1 -4.36108e-08 2.27586 104.054)" fill="white" fill-opacity="0.73"/>
<ellipse rx="2.27193" ry="2.27586" transform="matrix(4.38122e-08 1 1 -4.36108e-08 2.27586 129.5)" fill="white" fill-opacity="0.73"/>
<ellipse rx="2.27193" ry="2.27586" transform="matrix(4.38122e-08 1 1 -4.36108e-08 2.27586 154.946)" fill="white" fill-opacity="0.73"/>
<ellipse rx="2.27193" ry="2.27586" transform="matrix(4.38122e-08 1 1 -4.36108e-08 2.27586 180.392)" fill="white" fill-opacity="0.73"/>
<ellipse rx="2.27193" ry="2.27586" transform="matrix(4.38122e-08 1 1 -4.36108e-08 2.27586 205.837)" fill="white" fill-opacity="0.73"/>
<ellipse rx="2.27193" ry="2.27586" transform="matrix(4.38122e-08 1 1 -4.36108e-08 2.27586 231.283)" fill="white" fill-opacity="0.73"/>
<ellipse rx="2.27193" ry="2.27586" transform="matrix(4.38122e-08 1 1 -4.36108e-08 2.27586 256.728)" fill="white" fill-opacity="0.73"/>
<ellipse rx="2.27193" ry="2.27586" transform="matrix(4.38122e-08 1 1 -4.36108e-08 15.0207 14.9948)" fill="white" fill-opacity="0.73"/>
<ellipse rx="2.27193" ry="2.27586" transform="matrix(4.38122e-08 1 1 -4.36108e-08 15.0207 40.4406)" fill="white" fill-opacity="0.73"/>
<ellipse rx="2.27193" ry="2.27586" transform="matrix(4.38122e-08 1 1 -4.36108e-08 15.0207 65.8859)" fill="white" fill-opacity="0.73"/>
<ellipse rx="2.27193" ry="2.27586" transform="matrix(4.38122e-08 1 1 -4.36108e-08 15.0207 91.3317)" fill="white" fill-opacity="0.73"/>
<ellipse rx="2.27193" ry="2.27586" transform="matrix(4.38122e-08 1 1 -4.36108e-08 15.0207 116.777)" fill="white" fill-opacity="0.73"/>
<ellipse rx="2.27193" ry="2.27586" transform="matrix(4.38122e-08 1 1 -4.36108e-08 15.0207 142.223)" fill="white" fill-opacity="0.73"/>
<ellipse rx="2.27193" ry="2.27586" transform="matrix(4.38122e-08 1 1 -4.36108e-08 15.0207 167.668)" fill="white" fill-opacity="0.73"/>
<ellipse rx="2.27193" ry="2.27586" transform="matrix(4.38122e-08 1 1 -4.36108e-08 15.0207 193.114)" fill="white" fill-opacity="0.73"/>
<ellipse rx="2.27193" ry="2.27586" transform="matrix(4.38122e-08 1 1 -4.36108e-08 15.0207 218.56)" fill="white" fill-opacity="0.73"/>
<ellipse rx="2.27193" ry="2.27586" transform="matrix(4.38122e-08 1 1 -4.36108e-08 15.0207 244.005)" fill="white" fill-opacity="0.73"/>
<ellipse rx="2.27193" ry="2.27586" transform="matrix(4.38122e-08 1 1 -4.36108e-08 27.7655 27.7177)" fill="white" fill-opacity="0.73"/>
<ellipse rx="2.27193" ry="2.27586" transform="matrix(4.38122e-08 1 1 -4.36108e-08 27.7655 53.163)" fill="white" fill-opacity="0.73"/>
<ellipse rx="2.27193" ry="2.27586" transform="matrix(4.38122e-08 1 1 -4.36108e-08 27.7655 78.6088)" fill="white" fill-opacity="0.73"/>
<ellipse rx="2.27193" ry="2.27586" transform="matrix(4.38122e-08 1 1 -4.36108e-08 27.7655 104.054)" fill="white" fill-opacity="0.73"/>
<ellipse rx="2.27193" ry="2.27586" transform="matrix(4.38122e-08 1 1 -4.36108e-08 27.7655 129.5)" fill="white" fill-opacity="0.73"/>
<ellipse rx="2.27193" ry="2.27586" transform="matrix(4.38122e-08 1 1 -4.36108e-08 27.7655 154.946)" fill="white" fill-opacity="0.73"/>
<ellipse rx="2.27193" ry="2.27586" transform="matrix(4.38122e-08 1 1 -4.36108e-08 27.7655 180.391)" fill="white" fill-opacity="0.73"/>
<ellipse rx="2.27193" ry="2.27586" transform="matrix(4.38122e-08 1 1 -4.36108e-08 27.7655 205.837)" fill="white" fill-opacity="0.73"/>
<ellipse rx="2.27193" ry="2.27586" transform="matrix(4.38122e-08 1 1 -4.36108e-08 27.7655 231.283)" fill="white" fill-opacity="0.73"/>
<ellipse rx="2.27193" ry="2.27586" transform="matrix(4.38122e-08 1 1 -4.36108e-08 40.5104 40.4406)" fill="white" fill-opacity="0.73"/>
<ellipse rx="2.27193" ry="2.27586" transform="matrix(4.38122e-08 1 1 -4.36108e-08 40.5104 65.8859)" fill="white" fill-opacity="0.73"/>
<ellipse rx="2.27193" ry="2.27586" transform="matrix(4.38122e-08 1 1 -4.36108e-08 40.5104 91.3317)" fill="white" fill-opacity="0.73"/>
<ellipse rx="2.27193" ry="2.27586" transform="matrix(4.38122e-08 1 1 -4.36108e-08 40.5104 116.777)" fill="white" fill-opacity="0.73"/>
<ellipse rx="2.27193" ry="2.27586" transform="matrix(4.38122e-08 1 1 -4.36108e-08 40.5104 142.223)" fill="white" fill-opacity="0.73"/>
<ellipse rx="2.27193" ry="2.27586" transform="matrix(4.38122e-08 1 1 -4.36108e-08 40.5104 167.668)" fill="white" fill-opacity="0.73"/>
<ellipse rx="2.27193" ry="2.27586" transform="matrix(4.38122e-08 1 1 -4.36108e-08 40.5104 193.114)" fill="white" fill-opacity="0.73"/>
<ellipse rx="2.27193" ry="2.27586" transform="matrix(4.38122e-08 1 1 -4.36108e-08 40.5104 218.56)" fill="white" fill-opacity="0.73"/>
<ellipse rx="2.27193" ry="2.27586" transform="matrix(4.38122e-08 1 1 -4.36108e-08 53.2551 53.163)" fill="white" fill-opacity="0.73"/>
<ellipse rx="2.27193" ry="2.27586" transform="matrix(4.38122e-08 1 1 -4.36108e-08 53.2551 78.6088)" fill="white" fill-opacity="0.73"/>
<ellipse rx="2.27193" ry="2.27586" transform="matrix(4.38122e-08 1 1 -4.36108e-08 53.2551 104.054)" fill="white" fill-opacity="0.73"/>
<ellipse rx="2.27193" ry="2.27586" transform="matrix(4.38122e-08 1 1 -4.36108e-08 53.2551 129.5)" fill="white" fill-opacity="0.73"/>
<ellipse rx="2.27193" ry="2.27586" transform="matrix(4.38122e-08 1 1 -4.36108e-08 53.2551 154.946)" fill="white" fill-opacity="0.73"/>
<ellipse rx="2.27193" ry="2.27586" transform="matrix(4.38122e-08 1 1 -4.36108e-08 53.2551 180.391)" fill="white" fill-opacity="0.73"/>
<ellipse rx="2.27193" ry="2.27586" transform="matrix(4.38122e-08 1 1 -4.36108e-08 53.2551 205.837)" fill="white" fill-opacity="0.73"/>
<ellipse rx="2.27193" ry="2.27586" transform="matrix(4.38122e-08 1 1 -4.36108e-08 66 65.8859)" fill="white" fill-opacity="0.73"/>
<ellipse rx="2.27193" ry="2.27586" transform="matrix(4.38122e-08 1 1 -4.36108e-08 66 91.3317)" fill="white" fill-opacity="0.73"/>
<ellipse rx="2.27193" ry="2.27586" transform="matrix(4.38122e-08 1 1 -4.36108e-08 66 116.777)" fill="white" fill-opacity="0.73"/>
<ellipse rx="2.27193" ry="2.27586" transform="matrix(4.38122e-08 1 1 -4.36108e-08 66 142.223)" fill="white" fill-opacity="0.73"/>
<ellipse rx="2.27193" ry="2.27586" transform="matrix(4.38122e-08 1 1 -4.36108e-08 66 167.668)" fill="white" fill-opacity="0.73"/>
<ellipse rx="2.27193" ry="2.27586" transform="matrix(4.38122e-08 1 1 -4.36108e-08 66 193.114)" fill="white" fill-opacity="0.73"/>
<ellipse rx="2.27193" ry="2.27586" transform="matrix(4.38122e-08 1 1 -4.36108e-08 78.7447 78.6088)" fill="white" fill-opacity="0.73"/>
<ellipse rx="2.27193" ry="2.27586" transform="matrix(4.38122e-08 1 1 -4.36108e-08 78.7447 104.054)" fill="white" fill-opacity="0.73"/>
<ellipse rx="2.27193" ry="2.27586" transform="matrix(4.38122e-08 1 1 -4.36108e-08 78.7447 129.5)" fill="white" fill-opacity="0.73"/>
<ellipse rx="2.27193" ry="2.27586" transform="matrix(4.38122e-08 1 1 -4.36108e-08 78.7447 154.946)" fill="white" fill-opacity="0.73"/>
<ellipse rx="2.27193" ry="2.27586" transform="matrix(4.38122e-08 1 1 -4.36108e-08 78.7447 180.391)" fill="white" fill-opacity="0.73"/>
<ellipse rx="2.27193" ry="2.27586" transform="matrix(4.38122e-08 1 1 -4.36108e-08 91.4896 91.3317)" fill="white" fill-opacity="0.73"/>
<ellipse rx="2.27193" ry="2.27586" transform="matrix(4.38122e-08 1 1 -4.36108e-08 91.4896 116.777)" fill="white" fill-opacity="0.73"/>
<ellipse rx="2.27193" ry="2.27586" transform="matrix(4.38122e-08 1 1 -4.36108e-08 91.4896 142.223)" fill="white" fill-opacity="0.73"/>
<ellipse rx="2.27193" ry="2.27586" transform="matrix(4.38122e-08 1 1 -4.36108e-08 91.4896 167.668)" fill="white" fill-opacity="0.73"/>
<ellipse rx="2.27193" ry="2.27586" transform="matrix(4.38122e-08 1 1 -4.36108e-08 104.234 104.054)" fill="white" fill-opacity="0.73"/>
<ellipse rx="2.27193" ry="2.27586" transform="matrix(4.38122e-08 1 1 -4.36108e-08 104.234 129.5)" fill="white" fill-opacity="0.73"/>
<ellipse rx="2.27193" ry="2.27586" transform="matrix(4.38122e-08 1 1 -4.36108e-08 104.234 154.946)" fill="white" fill-opacity="0.73"/>
<ellipse rx="2.27193" ry="2.27586" transform="matrix(4.38122e-08 1 1 -4.36108e-08 116.979 116.777)" fill="white" fill-opacity="0.73"/>
<ellipse rx="2.27193" ry="2.27586" transform="matrix(4.38122e-08 1 1 -4.36108e-08 116.979 142.223)" fill="white" fill-opacity="0.73"/>
<ellipse rx="2.27193" ry="2.27586" transform="matrix(4.38122e-08 1 1 -4.36108e-08 129.724 129.5)" fill="white" fill-opacity="0.73"/>
</svg>
